<svg width="40" height="40" viewBox="0 0 340 340" fill="none" xmlns="http://www.w3.org/2000/svg">
<circle cx="170" cy="170" r="170" fill="#FF6200"/>
<path d="M59.875 225V115H90.125C98.0417 115 104 117.208 108 121.625C112 126 114 132.417 114 140.875V192.375C114 202.792 112.167 210.833 108.5 216.5C104.875 222.167 98.5 225 89.375 225H59.875ZM82 205.562H85.8125C89.8542 205.562 91.875 203.604 91.875 199.688V142.938C91.875 139.271 91.375 136.917 90.375 135.875C89.4167 134.792 87.4375 134.25 84.4375 134.25H82V205.562Z" fill="white"/>
<path d="M226.875 225V115H257.125C265.042 115 271 117.208 275 121.625C279 126 281 132.417 281 140.875V192.375C281 202.792 279.167 210.833 275.5 216.5C271.875 222.167 265.5 225 256.375 225H226.875ZM249 205.562H252.812C256.854 205.562 258.875 203.604 258.875 199.688V142.938C258.875 139.271 258.375 136.917 257.375 135.875C256.417 134.792 254.438 134.25 251.438 134.25H249V205.562Z" fill="white"/>
<path fill-rule="evenodd" clip-rule="evenodd" d="M162.904 115H177.456L216.832 115V137H174.063L159.078 159H216.832V181H144.094L114.125 225H88.0004L162.904 115.027V115ZM217 203H170V225H217V203Z" fill="white"/>
<rect x="170" y="115" width="22" height="110" fill="white"/>
</svg>
