<svg width="542" height="193" viewBox="0 0 542 193" fill="none" xmlns="http://www.w3.org/2000/svg">
<path fill-rule="evenodd" clip-rule="evenodd" d="M89.4831 40H134V62.2584H89.5146L73.929 84.517H134V106.775H58.3435L27.1725 151.292H0L77.9087 40.0269V40H77.9276L89.4831 40ZM134 129.034H77.9087V151.292H134V129.034Z" fill="white"/>
<path d="M189 152C178.958 152 171.708 149.5 167.25 144.5C162.833 139.5 160.625 131.542 160.625 120.625V109.875H182.375V123.625C182.375 126.167 182.75 128.167 183.5 129.625C184.292 131.042 185.646 131.75 187.562 131.75C189.562 131.75 190.938 131.167 191.688 130C192.479 128.833 192.875 126.917 192.875 124.25C192.875 120.875 192.542 118.062 191.875 115.812C191.208 113.521 190.042 111.354 188.375 109.312C186.75 107.229 184.479 104.812 181.562 102.062L171.688 92.6875C164.312 85.7292 160.625 77.7708 160.625 68.8125C160.625 59.4375 162.792 52.2917 167.125 47.375C171.5 42.4583 177.812 40 186.062 40C196.146 40 203.292 42.6875 207.5 48.0625C211.75 53.4375 213.875 61.6042 213.875 72.5625H191.5V65C191.5 63.5 191.062 62.3333 190.188 61.5C189.354 60.6667 188.208 60.25 186.75 60.25C185 60.25 183.708 60.75 182.875 61.75C182.083 62.7083 181.688 63.9583 181.688 65.5C181.688 67.0417 182.104 68.7083 182.938 70.5C183.771 72.2917 185.417 74.3542 187.875 76.6875L200.562 88.875C203.104 91.2917 205.438 93.8542 207.562 96.5625C209.688 99.2292 211.396 102.354 212.688 105.938C213.979 109.479 214.625 113.812 214.625 118.938C214.625 129.271 212.708 137.375 208.875 143.25C205.083 149.083 198.458 152 189 152ZM231.438 151V62.125L218.375 62.125V41L266.5 41V62.125H253.438V151H231.438ZM298.062 152C288.896 152 282.146 149.438 277.812 144.312C273.479 139.146 271.312 131.562 271.312 121.562V41H292.688V120.687C292.688 122.521 292.792 124.292 293 126C293.208 127.667 293.688 129.042 294.438 130.125C295.188 131.208 296.396 131.75 298.062 131.75C299.771 131.75 301 131.229 301.75 130.188C302.5 129.104 302.958 127.708 303.125 126C303.333 124.292 303.438 122.521 303.438 120.687V41H324.812V121.562C324.812 131.562 322.646 139.146 318.312 144.312C313.979 149.438 307.229 152 298.062 152ZM333.25 151V41L363.5 41C371.417 41 377.375 43.2083 381.375 47.625C385.375 52 387.375 58.4167 387.375 66.875V118.375C387.375 128.792 385.542 136.833 381.875 142.5C378.25 148.167 371.875 151 362.75 151H333.25ZM355.375 131.562H359.188C363.229 131.562 365.25 129.604 365.25 125.687V68.9375C365.25 65.2708 364.75 62.9167 363.75 61.875C362.792 60.7917 360.812 60.25 357.812 60.25H355.375V131.562ZM395.375 151V41H416.625V151L395.375 151ZM451.625 152C442.833 152 436.104 149.354 431.438 144.062C426.812 138.729 424.5 131.042 424.5 121V68.75C424.5 59.3333 426.792 52.1875 431.375 47.3125C436 42.4375 442.75 40 451.625 40C460.5 40 467.229 42.4375 471.812 47.3125C476.438 52.1875 478.75 59.3333 478.75 68.75V121C478.75 131.042 476.417 138.729 471.75 144.062C467.125 149.354 460.417 152 451.625 152ZM451.812 131.75C455.146 131.75 456.812 128.521 456.812 122.062V68.375C456.812 62.9583 455.188 60.25 451.938 60.25C448.271 60.25 446.438 63.0208 446.438 68.5625V122.187C446.438 125.604 446.854 128.062 447.688 129.562C448.521 131.021 449.896 131.75 451.812 131.75ZM513.75 152C503.708 152 496.458 149.5 492 144.5C487.583 139.5 485.375 131.542 485.375 120.625V109.875H507.125V123.625C507.125 126.167 507.5 128.167 508.25 129.625C509.042 131.042 510.396 131.75 512.312 131.75C514.312 131.75 515.688 131.167 516.438 130C517.229 128.833 517.625 126.917 517.625 124.25C517.625 120.875 517.292 118.062 516.625 115.812C515.958 113.521 514.792 111.354 513.125 109.312C511.5 107.229 509.229 104.812 506.312 102.062L496.438 92.6875C489.062 85.7292 485.375 77.7708 485.375 68.8125C485.375 59.4375 487.542 52.2917 491.875 47.375C496.25 42.4583 502.562 40 510.812 40C520.896 40 528.042 42.6875 532.25 48.0625C536.5 53.4375 538.625 61.6042 538.625 72.5625H516.25V65C516.25 63.5 515.812 62.3333 514.938 61.5C514.104 60.6667 512.958 60.25 511.5 60.25C509.75 60.25 508.458 60.75 507.625 61.75C506.833 62.7083 506.438 63.9583 506.438 65.5C506.438 67.0417 506.854 68.7083 507.688 70.5C508.521 72.2917 510.167 74.3542 512.625 76.6875L525.312 88.875C527.854 91.2917 530.188 93.8542 532.312 96.5625C534.438 99.2292 536.146 102.354 537.438 105.937C538.729 109.479 539.375 113.812 539.375 118.937C539.375 129.271 537.458 137.375 533.625 143.25C529.833 149.083 523.208 152 513.75 152Z" fill="white"/>
</svg>
