<svg width="611" height="193" viewBox="0 0 611 193" fill="none" xmlns="http://www.w3.org/2000/svg">
<path fill-rule="evenodd" clip-rule="evenodd" d="M37.1415 173.123H-3.05176e-05L106.492 21.0368V21L106.517 21L127.18 21L183.161 21V51.4246H122.355L101.052 81.8491H183.161V112.274H79.7485L37.1415 173.123ZM183.161 142.698H106.492V173.123H183.161V142.698Z" fill="white"/>
<path d="M258 152C247.958 152 240.708 149.5 236.25 144.5C231.833 139.5 229.625 131.542 229.625 120.625V109.875H251.375V123.625C251.375 126.167 251.75 128.167 252.5 129.625C253.292 131.042 254.646 131.75 256.562 131.75C258.562 131.75 259.938 131.167 260.688 130C261.479 128.833 261.875 126.917 261.875 124.25C261.875 120.875 261.542 118.062 260.875 115.812C260.208 113.521 259.042 111.354 257.375 109.312C255.75 107.229 253.479 104.812 250.562 102.062L240.688 92.6875C233.312 85.7292 229.625 77.7708 229.625 68.8125C229.625 59.4375 231.792 52.2917 236.125 47.375C240.5 42.4583 246.812 40 255.062 40C265.146 40 272.292 42.6875 276.5 48.0625C280.75 53.4375 282.875 61.6042 282.875 72.5625H260.5V65C260.5 63.5 260.062 62.3333 259.188 61.5C258.354 60.6667 257.208 60.25 255.75 60.25C254 60.25 252.708 60.75 251.875 61.75C251.083 62.7083 250.688 63.9583 250.688 65.5C250.688 67.0417 251.104 68.7083 251.938 70.5C252.771 72.2917 254.417 74.3542 256.875 76.6875L269.562 88.875C272.104 91.2917 274.438 93.8542 276.562 96.5625C278.688 99.2292 280.396 102.354 281.688 105.938C282.979 109.479 283.625 113.812 283.625 118.938C283.625 129.271 281.708 137.375 277.875 143.25C274.083 149.083 267.458 152 258 152ZM300.438 151V62.125L287.375 62.125V41L335.5 41V62.125H322.438V151H300.438ZM367.062 152C357.896 152 351.146 149.438 346.812 144.312C342.479 139.146 340.312 131.562 340.312 121.562V41H361.688V120.687C361.688 122.521 361.792 124.292 362 126C362.208 127.667 362.688 129.042 363.438 130.125C364.188 131.208 365.396 131.75 367.062 131.75C368.771 131.75 370 131.229 370.75 130.188C371.5 129.104 371.958 127.708 372.125 126C372.333 124.292 372.438 122.521 372.438 120.687V41H393.812V121.562C393.812 131.562 391.646 139.146 387.312 144.312C382.979 149.438 376.229 152 367.062 152ZM402.25 151V41L432.5 41C440.417 41 446.375 43.2083 450.375 47.625C454.375 52 456.375 58.4167 456.375 66.875V118.375C456.375 128.792 454.542 136.833 450.875 142.5C447.25 148.167 440.875 151 431.75 151H402.25ZM424.375 131.562H428.188C432.229 131.562 434.25 129.604 434.25 125.687V68.9375C434.25 65.2708 433.75 62.9167 432.75 61.875C431.792 60.7917 429.812 60.25 426.812 60.25H424.375V131.562ZM464.375 151V41H485.625V151L464.375 151ZM520.625 152C511.833 152 505.104 149.354 500.438 144.062C495.812 138.729 493.5 131.042 493.5 121V68.75C493.5 59.3333 495.792 52.1875 500.375 47.3125C505 42.4375 511.75 40 520.625 40C529.5 40 536.229 42.4375 540.812 47.3125C545.438 52.1875 547.75 59.3333 547.75 68.75V121C547.75 131.042 545.417 138.729 540.75 144.062C536.125 149.354 529.417 152 520.625 152ZM520.812 131.75C524.146 131.75 525.812 128.521 525.812 122.062V68.375C525.812 62.9583 524.188 60.25 520.938 60.25C517.271 60.25 515.438 63.0208 515.438 68.5625V122.187C515.438 125.604 515.854 128.062 516.688 129.562C517.521 131.021 518.896 131.75 520.812 131.75ZM582.75 152C572.708 152 565.458 149.5 561 144.5C556.583 139.5 554.375 131.542 554.375 120.625V109.875H576.125V123.625C576.125 126.167 576.5 128.167 577.25 129.625C578.042 131.042 579.396 131.75 581.312 131.75C583.312 131.75 584.688 131.167 585.438 130C586.229 128.833 586.625 126.917 586.625 124.25C586.625 120.875 586.292 118.062 585.625 115.812C584.958 113.521 583.792 111.354 582.125 109.312C580.5 107.229 578.229 104.812 575.312 102.062L565.438 92.6875C558.062 85.7292 554.375 77.7708 554.375 68.8125C554.375 59.4375 556.542 52.2917 560.875 47.375C565.25 42.4583 571.562 40 579.812 40C589.896 40 597.042 42.6875 601.25 48.0625C605.5 53.4375 607.625 61.6042 607.625 72.5625H585.25V65C585.25 63.5 584.812 62.3333 583.938 61.5C583.104 60.6667 581.958 60.25 580.5 60.25C578.75 60.25 577.458 60.75 576.625 61.75C575.833 62.7083 575.438 63.9583 575.438 65.5C575.438 67.0417 575.854 68.7083 576.688 70.5C577.521 72.2917 579.167 74.3542 581.625 76.6875L594.312 88.875C596.854 91.2917 599.188 93.8542 601.312 96.5625C603.438 99.2292 605.146 102.354 606.438 105.937C607.729 109.479 608.375 113.812 608.375 118.937C608.375 129.271 606.458 137.375 602.625 143.25C598.833 149.083 592.208 152 582.75 152Z" fill="white"/>
</svg>
