<svg width="645" height="194" viewBox="0 0 645 194" fill="none" xmlns="http://www.w3.org/2000/svg">
<path d="M292 152C281.958 152 274.708 149.5 270.25 144.5C265.833 139.5 263.625 131.542 263.625 120.625V109.875H285.375V123.625C285.375 126.167 285.75 128.167 286.5 129.625C287.292 131.042 288.646 131.75 290.562 131.75C292.562 131.75 293.938 131.167 294.688 130C295.479 128.833 295.875 126.917 295.875 124.25C295.875 120.875 295.542 118.062 294.875 115.812C294.208 113.521 293.042 111.354 291.375 109.312C289.75 107.229 287.479 104.812 284.562 102.062L274.688 92.6875C267.312 85.7292 263.625 77.7708 263.625 68.8125C263.625 59.4375 265.792 52.2917 270.125 47.375C274.5 42.4583 280.812 40 289.062 40C299.146 40 306.292 42.6875 310.5 48.0625C314.75 53.4375 316.875 61.6042 316.875 72.5625H294.5V65C294.5 63.5 294.062 62.3333 293.188 61.5C292.354 60.6667 291.208 60.25 289.75 60.25C288 60.25 286.708 60.75 285.875 61.75C285.083 62.7083 284.688 63.9583 284.688 65.5C284.688 67.0417 285.104 68.7083 285.938 70.5C286.771 72.2917 288.417 74.3542 290.875 76.6875L303.562 88.875C306.104 91.2917 308.438 93.8542 310.562 96.5625C312.688 99.2292 314.396 102.354 315.688 105.938C316.979 109.479 317.625 113.812 317.625 118.938C317.625 129.271 315.708 137.375 311.875 143.25C308.083 149.083 301.458 152 292 152ZM334.438 151V62.125H321.375V41H369.5V62.125H356.438V151H334.438ZM401.062 152C391.896 152 385.146 149.438 380.812 144.312C376.479 139.146 374.312 131.562 374.312 121.562V41H395.688V120.688C395.688 122.521 395.792 124.292 396 126C396.208 127.667 396.688 129.042 397.438 130.125C398.188 131.208 399.396 131.75 401.062 131.75C402.771 131.75 404 131.229 404.75 130.188C405.5 129.104 405.958 127.708 406.125 126C406.333 124.292 406.438 122.521 406.438 120.688V41H427.812V121.562C427.812 131.562 425.646 139.146 421.312 144.312C416.979 149.438 410.229 152 401.062 152ZM436.25 151V41H466.5C474.417 41 480.375 43.2083 484.375 47.625C488.375 52 490.375 58.4167 490.375 66.875V118.375C490.375 128.792 488.542 136.833 484.875 142.5C481.25 148.167 474.875 151 465.75 151H436.25ZM458.375 131.562H462.188C466.229 131.562 468.25 129.604 468.25 125.688V68.9375C468.25 65.2708 467.75 62.9167 466.75 61.875C465.792 60.7917 463.812 60.25 460.812 60.25H458.375V131.562ZM498.375 151V41H519.625V151H498.375ZM554.625 152C545.833 152 539.104 149.354 534.438 144.062C529.812 138.729 527.5 131.042 527.5 121V68.75C527.5 59.3333 529.792 52.1875 534.375 47.3125C539 42.4375 545.75 40 554.625 40C563.5 40 570.229 42.4375 574.812 47.3125C579.438 52.1875 581.75 59.3333 581.75 68.75V121C581.75 131.042 579.417 138.729 574.75 144.062C570.125 149.354 563.417 152 554.625 152ZM554.812 131.75C558.146 131.75 559.812 128.521 559.812 122.062V68.375C559.812 62.9583 558.188 60.25 554.938 60.25C551.271 60.25 549.438 63.0208 549.438 68.5625V122.188C549.438 125.604 549.854 128.062 550.688 129.562C551.521 131.021 552.896 131.75 554.812 131.75ZM616.75 152C606.708 152 599.458 149.5 595 144.5C590.583 139.5 588.375 131.542 588.375 120.625V109.875H610.125V123.625C610.125 126.167 610.5 128.167 611.25 129.625C612.042 131.042 613.396 131.75 615.312 131.75C617.312 131.75 618.688 131.167 619.438 130C620.229 128.833 620.625 126.917 620.625 124.25C620.625 120.875 620.292 118.062 619.625 115.812C618.958 113.521 617.792 111.354 616.125 109.312C614.5 107.229 612.229 104.812 609.312 102.062L599.438 92.6875C592.062 85.7292 588.375 77.7708 588.375 68.8125C588.375 59.4375 590.542 52.2917 594.875 47.375C599.25 42.4583 605.562 40 613.812 40C623.896 40 631.042 42.6875 635.25 48.0625C639.5 53.4375 641.625 61.6042 641.625 72.5625H619.25V65C619.25 63.5 618.812 62.3333 617.938 61.5C617.104 60.6667 615.958 60.25 614.5 60.25C612.75 60.25 611.458 60.75 610.625 61.75C609.833 62.7083 609.438 63.9583 609.438 65.5C609.438 67.0417 609.854 68.7083 610.688 70.5C611.521 72.2917 613.167 74.3542 615.625 76.6875L628.312 88.875C630.854 91.2917 633.188 93.8542 635.312 96.5625C637.438 99.2292 639.146 102.354 640.438 105.938C641.729 109.479 642.375 113.812 642.375 118.938C642.375 129.271 640.458 137.375 636.625 143.25C632.833 149.083 626.208 152 616.75 152Z" fill="white"/>
<path d="M4.875 152V42H35.125C43.0417 42 49 44.2083 53 48.625C57 53 59 59.4167 59 67.875V119.375C59 129.792 57.1667 137.833 53.5 143.5C49.875 149.167 43.5 152 34.375 152H4.875ZM27 132.562H30.8125C34.8542 132.562 36.875 130.604 36.875 126.688V69.9375C36.875 66.2708 36.375 63.9167 35.375 62.875C34.4167 61.7917 32.4375 61.25 29.4375 61.25H27V132.562Z" fill="white"/>
<path d="M171.875 152V42H202.125C210.042 42 216 44.2083 220 48.625C224 53 226 59.4167 226 67.875V119.375C226 129.792 224.167 137.833 220.5 143.5C216.875 149.167 210.5 152 201.375 152H171.875ZM194 132.562H197.812C201.854 132.562 203.875 130.604 203.875 126.688V69.9375C203.875 66.2708 203.375 63.9167 202.375 62.875C201.417 61.7917 199.438 61.25 196.438 61.25H194V132.562Z" fill="white"/>
<path fill-rule="evenodd" clip-rule="evenodd" d="M107.904 42H122.456L161.832 42V64H119.063L104.078 86.0004H161.832V108H89.0936L59.125 152H33.0004L107.904 42.0272V42ZM162 130H115V152H162V130Z" fill="white"/>
<rect x="115" y="42" width="22" height="110" fill="white"/>
</svg>
