<svg width="1200" height="715" viewBox="0 0 1200 715" fill="none" xmlns="http://www.w3.org/2000/svg">
<rect width="1200" height="715" fill="#A68445"/>
<path d="M233.369 457H205.67L285.784 238.818H313.057L393.17 457H365.472L300.273 273.335H298.568L233.369 457ZM243.597 371.773H355.244V395.21H243.597V371.773ZM427.155 457V238.818H453.575V433.562H554.996V457H427.155ZM554.969 262.256V238.818H718.605V262.256H649.998V457H623.577V262.256H554.969Z" fill="#F5F5F5"/>
<mask id="mask0_380_2" style="mask-type:alpha" maskUnits="userSpaceOnUse" x="732" y="188" width="269" height="269">
<rect x="732" y="188" width="269" height="269" fill="#D9D9D9"/>
</mask>
<g mask="url(#mask0_380_2)">
<path d="M855.292 463.768V363.789H765.625V338.795H855.292V238.817H877.708V338.795H967.375V363.789H877.708V463.768H855.292Z" fill="black"/>
</g>
<path d="M766.886 188H765.409L769.682 176.364H771.136L775.409 188H773.932L770.455 178.205H770.364L766.886 188ZM767.432 183.455H773.386V184.705H767.432V183.455ZM777.222 188V176.364H781.153C782.063 176.364 782.809 176.519 783.392 176.83C783.975 177.136 784.407 177.559 784.688 178.097C784.968 178.634 785.108 179.246 785.108 179.932C785.108 180.617 784.968 181.225 784.688 181.756C784.407 182.286 783.977 182.703 783.398 183.006C782.818 183.305 782.078 183.455 781.176 183.455H777.994V182.182H781.131C781.752 182.182 782.252 182.091 782.631 181.909C783.013 181.727 783.29 181.47 783.46 181.136C783.634 180.799 783.722 180.398 783.722 179.932C783.722 179.466 783.634 179.059 783.46 178.71C783.286 178.362 783.008 178.093 782.625 177.903C782.242 177.71 781.737 177.614 781.108 177.614H778.631V188H777.222ZM782.699 182.773L785.562 188H783.926L781.108 182.773H782.699ZM796.82 180H795.411C795.327 179.595 795.181 179.239 794.973 178.932C794.768 178.625 794.518 178.367 794.223 178.159C793.931 177.947 793.607 177.788 793.251 177.682C792.895 177.576 792.524 177.523 792.138 177.523C791.433 177.523 790.795 177.701 790.223 178.057C789.655 178.413 789.202 178.938 788.865 179.631C788.532 180.324 788.365 181.174 788.365 182.182C788.365 183.189 788.532 184.04 788.865 184.733C789.202 185.426 789.655 185.951 790.223 186.307C790.795 186.663 791.433 186.841 792.138 186.841C792.524 186.841 792.895 186.788 793.251 186.682C793.607 186.576 793.931 186.419 794.223 186.21C794.518 185.998 794.768 185.739 794.973 185.432C795.181 185.121 795.327 184.765 795.411 184.364H796.82C796.714 184.958 796.52 185.491 796.24 185.96C795.96 186.43 795.611 186.83 795.195 187.159C794.778 187.485 794.31 187.733 793.791 187.903C793.276 188.074 792.725 188.159 792.138 188.159C791.145 188.159 790.263 187.917 789.49 187.432C788.717 186.947 788.109 186.258 787.666 185.364C787.223 184.47 787.001 183.409 787.001 182.182C787.001 180.955 787.223 179.894 787.666 179C788.109 178.106 788.717 177.417 789.49 176.932C790.263 176.447 791.145 176.205 792.138 176.205C792.725 176.205 793.276 176.29 793.791 176.46C794.31 176.631 794.778 176.881 795.195 177.21C795.611 177.536 795.96 177.934 796.24 178.403C796.52 178.869 796.714 179.402 796.82 180ZM799.097 188V176.364H800.506V181.545H806.71V176.364H808.119V188H806.71V182.795H800.506V188H799.097ZM812.349 176.364V188H810.94V176.364H812.349ZM814.538 177.614V176.364H823.266V177.614H819.607V188H818.197V177.614H814.538ZM825.44 188V176.364H832.463V177.614H826.849V181.545H832.099V182.795H826.849V186.75H832.554V188H825.44ZM835.003 188V176.364H836.412V182.136H836.548L841.776 176.364H843.616L838.73 181.614L843.616 188H841.912L837.866 182.591L836.412 184.227V188H835.003ZM844.804 177.614V176.364H853.531V177.614H849.872V188H848.463V177.614H844.804ZM863.342 176.364H864.751V184.068C864.751 184.864 864.564 185.574 864.189 186.199C863.818 186.82 863.293 187.311 862.615 187.67C861.937 188.027 861.142 188.205 860.229 188.205C859.316 188.205 858.52 188.027 857.842 187.67C857.164 187.311 856.638 186.82 856.263 186.199C855.892 185.574 855.706 184.864 855.706 184.068V176.364H857.115V183.955C857.115 184.523 857.24 185.028 857.49 185.472C857.74 185.911 858.096 186.258 858.558 186.511C859.024 186.761 859.581 186.886 860.229 186.886C860.876 186.886 861.433 186.761 861.899 186.511C862.365 186.258 862.721 185.911 862.967 185.472C863.217 185.028 863.342 184.523 863.342 183.955V176.364ZM867.565 188V176.364H871.497C872.406 176.364 873.152 176.519 873.736 176.83C874.319 177.136 874.751 177.559 875.031 178.097C875.312 178.634 875.452 179.246 875.452 179.932C875.452 180.617 875.312 181.225 875.031 181.756C874.751 182.286 874.321 182.703 873.741 183.006C873.162 183.305 872.421 183.455 871.52 183.455H868.338V182.182H871.474C872.096 182.182 872.596 182.091 872.974 181.909C873.357 181.727 873.634 181.47 873.804 181.136C873.978 180.799 874.065 180.398 874.065 179.932C874.065 179.466 873.978 179.059 873.804 178.71C873.63 178.362 873.351 178.093 872.969 177.903C872.586 177.71 872.08 177.614 871.452 177.614H868.974V188H867.565ZM873.043 182.773L875.906 188H874.27L871.452 182.773H873.043ZM885.527 185.955V178.455H886.8V185.955H885.527ZM882.413 182.841V181.568H889.913V182.841H882.413ZM766.409 207V195.364H770.341C771.25 195.364 771.996 195.519 772.58 195.83C773.163 196.136 773.595 196.559 773.875 197.097C774.155 197.634 774.295 198.246 774.295 198.932C774.295 199.617 774.155 200.225 773.875 200.756C773.595 201.286 773.165 201.703 772.585 202.006C772.006 202.305 771.265 202.455 770.364 202.455H767.182V201.182H770.318C770.939 201.182 771.439 201.091 771.818 200.909C772.201 200.727 772.477 200.47 772.648 200.136C772.822 199.799 772.909 199.398 772.909 198.932C772.909 198.466 772.822 198.059 772.648 197.71C772.473 197.362 772.195 197.093 771.812 196.903C771.43 196.71 770.924 196.614 770.295 196.614H767.818V207H766.409ZM771.886 201.773L774.75 207H773.114L770.295 201.773H771.886ZM777.121 207H775.643L779.916 195.364H781.371L785.643 207H784.166L780.689 197.205H780.598L777.121 207ZM777.666 202.455H783.621V203.705H777.666V202.455ZM795.092 195.364H796.501V203.068C796.501 203.864 796.314 204.574 795.939 205.199C795.568 205.82 795.043 206.311 794.365 206.67C793.687 207.027 792.892 207.205 791.979 207.205C791.066 207.205 790.27 207.027 789.592 206.67C788.914 206.311 788.388 205.82 788.013 205.199C787.642 204.574 787.456 203.864 787.456 203.068V195.364H788.865V202.955C788.865 203.523 788.99 204.028 789.24 204.472C789.49 204.911 789.846 205.258 790.308 205.511C790.774 205.761 791.331 205.886 791.979 205.886C792.626 205.886 793.183 205.761 793.649 205.511C794.115 205.258 794.471 204.911 794.717 204.472C794.967 204.028 795.092 203.523 795.092 202.955V195.364ZM799.315 195.364H800.997L804.952 205.023H805.088L809.043 195.364H810.724V207H809.406V198.159H809.293L805.656 207H804.384L800.747 198.159H800.634V207H799.315V195.364ZM813.55 207V195.364H814.959V201.136H815.095L820.322 195.364H822.163L817.277 200.614L822.163 207H820.459L816.413 201.591L814.959 203.227V207H813.55ZM831.624 195.364H833.033V203.068C833.033 203.864 832.845 204.574 832.47 205.199C832.099 205.82 831.574 206.311 830.896 206.67C830.218 207.027 829.423 207.205 828.51 207.205C827.597 207.205 826.802 207.027 826.124 206.67C825.446 206.311 824.919 205.82 824.544 205.199C824.173 204.574 823.987 203.864 823.987 203.068V195.364H825.396V202.955C825.396 203.523 825.521 204.028 825.771 204.472C826.021 204.911 826.377 205.258 826.839 205.511C827.305 205.761 827.862 205.886 828.51 205.886C829.158 205.886 829.714 205.761 830.18 205.511C830.646 205.258 831.002 204.911 831.249 204.472C831.499 204.028 831.624 203.523 831.624 202.955V195.364ZM835.847 207V195.364H837.256V205.75H842.665V207H835.847ZM842.663 196.614V195.364H851.391V196.614H847.732V207H846.322V196.614H842.663ZM861.202 195.364H862.611V203.068C862.611 203.864 862.423 204.574 862.048 205.199C861.677 205.82 861.152 206.311 860.474 206.67C859.796 207.027 859.001 207.205 858.088 207.205C857.175 207.205 856.38 207.027 855.702 206.67C855.024 206.311 854.497 205.82 854.122 205.199C853.751 204.574 853.565 203.864 853.565 203.068V195.364H854.974V202.955C854.974 203.523 855.099 204.028 855.349 204.472C855.599 204.911 855.955 205.258 856.418 205.511C856.884 205.761 857.44 205.886 858.088 205.886C858.736 205.886 859.293 205.761 859.759 205.511C860.224 205.258 860.58 204.911 860.827 204.472C861.077 204.028 861.202 203.523 861.202 202.955V195.364ZM865.425 207V195.364H869.357C870.266 195.364 871.012 195.519 871.595 195.83C872.179 196.136 872.61 196.559 872.891 197.097C873.171 197.634 873.311 198.246 873.311 198.932C873.311 199.617 873.171 200.225 872.891 200.756C872.61 201.286 872.18 201.703 871.601 202.006C871.021 202.305 870.281 202.455 869.379 202.455H866.197V201.182H869.334C869.955 201.182 870.455 201.091 870.834 200.909C871.216 200.727 871.493 200.47 871.663 200.136C871.838 199.799 871.925 199.398 871.925 198.932C871.925 198.466 871.838 198.059 871.663 197.71C871.489 197.362 871.211 197.093 870.828 196.903C870.446 196.71 869.94 196.614 869.311 196.614H866.834V207H865.425ZM870.902 201.773L873.766 207H872.129L869.311 201.773H870.902ZM886.523 198.273C886.455 197.697 886.178 197.25 885.693 196.932C885.208 196.614 884.614 196.455 883.909 196.455C883.394 196.455 882.943 196.538 882.557 196.705C882.174 196.871 881.875 197.1 881.659 197.392C881.447 197.684 881.341 198.015 881.341 198.386C881.341 198.697 881.415 198.964 881.562 199.188C881.714 199.407 881.907 199.591 882.142 199.739C882.377 199.883 882.623 200.002 882.881 200.097C883.138 200.187 883.375 200.261 883.591 200.318L884.773 200.636C885.076 200.716 885.413 200.826 885.784 200.966C886.159 201.106 886.517 201.297 886.858 201.54C887.203 201.778 887.487 202.085 887.71 202.46C887.934 202.835 888.045 203.295 888.045 203.841C888.045 204.47 887.881 205.038 887.551 205.545C887.225 206.053 886.748 206.456 886.119 206.756C885.494 207.055 884.735 207.205 883.841 207.205C883.008 207.205 882.286 207.07 881.676 206.801C881.07 206.532 880.593 206.157 880.244 205.676C879.9 205.195 879.705 204.636 879.659 204H881.114C881.152 204.439 881.299 204.803 881.557 205.091C881.818 205.375 882.148 205.587 882.545 205.727C882.947 205.864 883.379 205.932 883.841 205.932C884.379 205.932 884.862 205.845 885.29 205.67C885.718 205.492 886.057 205.246 886.307 204.932C886.557 204.614 886.682 204.242 886.682 203.818C886.682 203.432 886.574 203.117 886.358 202.875C886.142 202.633 885.858 202.436 885.506 202.284C885.153 202.133 884.773 202 884.364 201.886L882.932 201.477C882.023 201.216 881.303 200.843 880.773 200.358C880.242 199.873 879.977 199.239 879.977 198.455C879.977 197.803 880.153 197.235 880.506 196.75C880.862 196.261 881.339 195.883 881.938 195.614C882.54 195.341 883.212 195.205 883.955 195.205C884.705 195.205 885.371 195.339 885.955 195.608C886.538 195.873 887 196.237 887.341 196.699C887.686 197.161 887.867 197.686 887.886 198.273H886.523ZM890.362 207V195.364H897.385V196.614H891.771V200.545H897.021V201.795H891.771V205.75H897.476V207H890.362ZM901.334 195.364V207H899.925V195.364H901.334ZM903.523 196.614V195.364H912.25V196.614H908.591V207H907.182V196.614H903.523ZM922.811 195.364V207H921.402V196.841H921.334L918.493 198.727V197.295L921.402 195.364H922.811ZM929.862 195.205C930.339 195.208 930.817 195.299 931.294 195.477C931.771 195.655 932.207 195.951 932.601 196.364C932.995 196.773 933.311 197.331 933.55 198.04C933.788 198.748 933.908 199.636 933.908 200.705C933.908 201.739 933.809 202.657 933.612 203.46C933.419 204.259 933.139 204.934 932.771 205.483C932.408 206.032 931.964 206.449 931.442 206.733C930.923 207.017 930.336 207.159 929.68 207.159C929.029 207.159 928.447 207.03 927.936 206.773C927.429 206.511 927.012 206.15 926.686 205.688C926.364 205.222 926.158 204.682 926.067 204.068H927.453C927.578 204.602 927.826 205.044 928.197 205.392C928.572 205.737 929.067 205.909 929.68 205.909C930.578 205.909 931.286 205.517 931.805 204.733C932.328 203.949 932.589 202.841 932.589 201.409H932.499C932.286 201.727 932.035 202.002 931.743 202.233C931.451 202.464 931.127 202.642 930.771 202.767C930.415 202.892 930.036 202.955 929.635 202.955C928.968 202.955 928.357 202.79 927.8 202.46C927.247 202.127 926.804 201.67 926.47 201.091C926.141 200.508 925.976 199.841 925.976 199.091C925.976 198.379 926.135 197.727 926.453 197.136C926.775 196.542 927.226 196.068 927.805 195.716C928.389 195.364 929.074 195.193 929.862 195.205ZM929.862 196.455C929.385 196.455 928.955 196.574 928.572 196.812C928.194 197.047 927.893 197.366 927.669 197.767C927.449 198.165 927.339 198.606 927.339 199.091C927.339 199.576 927.446 200.017 927.658 200.415C927.874 200.809 928.167 201.123 928.538 201.358C928.913 201.589 929.339 201.705 929.817 201.705C930.177 201.705 930.512 201.634 930.822 201.494C931.133 201.35 931.404 201.155 931.635 200.909C931.87 200.659 932.054 200.377 932.186 200.062C932.319 199.744 932.385 199.413 932.385 199.068C932.385 198.614 932.275 198.187 932.055 197.79C931.839 197.392 931.54 197.07 931.158 196.824C930.779 196.578 930.347 196.455 929.862 196.455ZM939.847 195.205C940.324 195.208 940.801 195.299 941.278 195.477C941.756 195.655 942.191 195.951 942.585 196.364C942.979 196.773 943.295 197.331 943.534 198.04C943.773 198.748 943.892 199.636 943.892 200.705C943.892 201.739 943.794 202.657 943.597 203.46C943.403 204.259 943.123 204.934 942.756 205.483C942.392 206.032 941.949 206.449 941.426 206.733C940.907 207.017 940.32 207.159 939.665 207.159C939.013 207.159 938.432 207.03 937.92 206.773C937.413 206.511 936.996 206.15 936.67 205.688C936.348 205.222 936.142 204.682 936.051 204.068H937.438C937.562 204.602 937.811 205.044 938.182 205.392C938.557 205.737 939.051 205.909 939.665 205.909C940.563 205.909 941.271 205.517 941.79 204.733C942.313 203.949 942.574 202.841 942.574 201.409H942.483C942.271 201.727 942.019 202.002 941.727 202.233C941.436 202.464 941.112 202.642 940.756 202.767C940.4 202.892 940.021 202.955 939.619 202.955C938.953 202.955 938.341 202.79 937.784 202.46C937.231 202.127 936.788 201.67 936.455 201.091C936.125 200.508 935.96 199.841 935.96 199.091C935.96 198.379 936.119 197.727 936.438 197.136C936.759 196.542 937.21 196.068 937.79 195.716C938.373 195.364 939.059 195.193 939.847 195.205ZM939.847 196.455C939.369 196.455 938.939 196.574 938.557 196.812C938.178 197.047 937.877 197.366 937.653 197.767C937.434 198.165 937.324 198.606 937.324 199.091C937.324 199.576 937.43 200.017 937.642 200.415C937.858 200.809 938.152 201.123 938.523 201.358C938.898 201.589 939.324 201.705 939.801 201.705C940.161 201.705 940.496 201.634 940.807 201.494C941.117 201.35 941.388 201.155 941.619 200.909C941.854 200.659 942.038 200.377 942.17 200.062C942.303 199.744 942.369 199.413 942.369 199.068C942.369 198.614 942.259 198.187 942.04 197.79C941.824 197.392 941.525 197.07 941.142 196.824C940.763 196.578 940.331 196.455 939.847 196.455ZM946.126 207V205.977L949.967 201.773C950.418 201.28 950.789 200.852 951.081 200.489C951.373 200.121 951.589 199.777 951.729 199.455C951.873 199.129 951.945 198.788 951.945 198.432C951.945 198.023 951.846 197.669 951.649 197.369C951.456 197.07 951.191 196.839 950.854 196.676C950.517 196.513 950.138 196.432 949.717 196.432C949.27 196.432 948.88 196.525 948.547 196.71C948.217 196.892 947.962 197.148 947.78 197.477C947.602 197.807 947.513 198.193 947.513 198.636H946.172C946.172 197.955 946.329 197.356 946.643 196.841C946.958 196.326 947.386 195.924 947.928 195.636C948.473 195.348 949.085 195.205 949.763 195.205C950.445 195.205 951.049 195.348 951.575 195.636C952.102 195.924 952.515 196.312 952.814 196.801C953.113 197.29 953.263 197.833 953.263 198.432C953.263 198.86 953.185 199.278 953.03 199.688C952.878 200.093 952.613 200.545 952.234 201.045C951.859 201.542 951.339 202.148 950.672 202.864L948.058 205.659V205.75H953.467V207H946.126Z" fill="black"/>
</svg>
