<svg width="1200" height="715" viewBox="0 0 1200 715" fill="none" xmlns="http://www.w3.org/2000/svg">
<rect width="1200" height="715" fill="#7900B1"/>
<path d="M401.366 463.917V247.141H460.314C476.132 247.141 487.625 251.001 494.793 258.719C502.043 266.356 505.668 279.001 505.668 296.655V306.139C505.668 316.321 503.815 324.573 500.105 330.896C496.48 337.218 490.92 341.365 483.423 343.336C493.227 345.799 499.776 351.588 503.071 360.703C506.451 369.735 508.138 380.779 508.138 393.835C508.138 407.876 506.82 420.152 504.184 430.663C501.548 441.173 496.77 449.342 489.85 455.173C482.929 461.003 473.084 463.917 460.314 463.917H401.366ZM443.878 328.802H452.775C456.812 328.802 459.408 327.242 460.561 324.122C461.714 321.001 462.291 317.265 462.291 312.913V291.112C462.291 284.133 459.202 280.643 453.023 280.643H443.878V328.802ZM448.203 425.735C459.49 425.735 465.134 420.398 465.134 409.723V382.626C465.134 376.468 464.186 371.623 462.291 368.092C460.479 364.479 457.018 362.673 451.91 362.673H443.878V425.489C445.69 425.653 447.132 425.735 448.203 425.735ZM520.498 463.917V247.141H562.513V463.917H520.498ZM579.816 463.917V247.141H623.316V426.967H668.05V463.917H579.816ZM680.409 463.917V247.141H723.909V426.967H768.645V463.917H680.409ZM781.002 463.917V247.141H824.502V426.967H869.239V463.917H781.002ZM900.01 463.917V392.603L865.284 247.141H908.412L920.524 320.55L932.635 247.141H975.64L941.037 392.603V463.917H900.01Z" fill="white"/>
<path d="M391.727 248.455H354.818V463.917H391.727V248.455Z" fill="white"/>
<path d="M341.636 248.455H331.091V463.917H341.636V248.455Z" fill="white"/>
<path d="M317.909 248.455H296.818V463.917H317.909V248.455Z" fill="white"/>
<path d="M283.636 248.455H278.364V463.917H283.636V248.455Z" fill="white"/>
<path d="M270.455 248.455H257.273V463.917H270.455V248.455Z" fill="white"/>
<path d="M249.364 248.455H238.818V463.917H249.364V248.455Z" fill="white"/>
<path d="M225.636 248.455H223V463.917H225.636V248.455Z" fill="white"/>
<path d="M298.584 473.684V487.566H296.19V473.684H298.584ZM296.01 470C296.01 469.617 296.126 469.291 296.357 469.025C296.597 468.76 296.949 468.629 297.413 468.629C297.868 468.629 298.215 468.76 298.456 469.025C298.704 469.291 298.829 469.617 298.829 470C298.829 470.368 298.704 470.686 298.456 470.951C298.215 471.206 297.868 471.335 297.413 471.335C296.949 471.335 296.597 471.206 296.357 470.951C296.126 470.686 296.01 470.368 296.01 470ZM304.789 476.648V487.566H302.407V473.684H304.66L304.789 476.648ZM304.223 480.098L303.231 480.061C303.24 479.11 303.382 478.235 303.656 477.431C303.931 476.616 304.317 475.912 304.815 475.313C305.312 474.714 305.905 474.252 306.591 473.928C307.286 473.595 308.054 473.427 308.896 473.427C309.582 473.427 310.2 473.521 310.749 473.71C311.298 473.889 311.766 474.181 312.152 474.583C312.547 474.985 312.847 475.505 313.053 476.146C313.259 476.779 313.362 477.554 313.362 478.469V487.566H310.968V478.443C310.968 477.717 310.861 477.134 310.646 476.698C310.431 476.254 310.118 475.933 309.706 475.736C309.294 475.531 308.788 475.429 308.187 475.429C307.595 475.429 307.055 475.552 306.566 475.799C306.085 476.049 305.669 476.39 305.317 476.827C304.973 477.263 304.703 477.765 304.506 478.327C304.317 478.884 304.223 479.475 304.223 480.098ZM321.215 485.424L325.025 473.684H327.458L322.451 487.566H320.854L321.215 485.424ZM318.035 473.684L321.961 485.487L322.232 487.566H320.636L315.589 473.684H318.035ZM328.913 480.779V480.484C328.913 479.483 329.059 478.556 329.35 477.699C329.642 476.835 330.063 476.088 330.612 475.455C331.161 474.811 331.826 474.317 332.607 473.965C333.388 473.608 334.264 473.427 335.233 473.427C336.212 473.427 337.091 473.608 337.872 473.965C338.662 474.317 339.331 474.811 339.88 475.455C340.438 476.088 340.863 476.835 341.155 477.699C341.447 478.556 341.592 479.483 341.592 480.484V480.779C341.592 481.78 341.447 482.707 341.155 483.564C340.863 484.418 340.438 485.167 339.88 485.808C339.331 486.441 338.666 486.938 337.885 487.295C337.113 487.647 336.237 487.823 335.259 487.823C334.281 487.823 333.401 487.647 332.62 487.295C331.839 486.938 331.17 486.441 330.612 485.808C330.063 485.167 329.642 484.418 329.35 483.564C329.059 482.707 328.913 481.78 328.913 480.779ZM331.294 480.484V480.779C331.294 481.472 331.376 482.126 331.539 482.741C331.702 483.348 331.946 483.887 332.272 484.357C332.607 484.828 333.024 485.201 333.521 485.474C334.019 485.739 334.598 485.871 335.259 485.871C335.911 485.871 336.482 485.739 336.971 485.474C337.469 485.201 337.881 484.828 338.207 484.357C338.533 483.887 338.778 483.348 338.941 482.741C339.112 482.126 339.198 481.472 339.198 480.779V480.484C339.198 479.798 339.112 479.155 338.941 478.545C338.778 477.93 338.529 477.386 338.194 476.916C337.868 476.438 337.456 476.062 336.958 475.789C336.469 475.513 335.894 475.376 335.233 475.376C334.581 475.376 334.006 475.513 333.508 475.789C333.019 476.062 332.607 476.438 332.272 476.916C331.946 477.386 331.702 477.93 331.539 478.545C331.376 479.155 331.294 479.798 331.294 480.484ZM347.167 473.684V487.566H344.772V473.684H347.167ZM344.592 470C344.592 469.617 344.708 469.291 344.939 469.025C345.18 468.76 345.531 468.629 345.995 468.629C346.45 468.629 346.797 468.76 347.038 469.025C347.287 469.291 347.411 469.617 347.411 470C347.411 470.368 347.287 470.686 347.038 470.951C346.797 471.206 346.45 471.335 345.995 471.335C345.531 471.335 345.18 471.206 344.939 470.951C344.708 470.686 344.592 470.368 344.592 470ZM356.564 485.871C357.13 485.871 357.653 485.758 358.134 485.527C358.615 485.295 359.009 484.977 359.318 484.575C359.627 484.165 359.803 483.7 359.846 483.177H362.112C362.069 484 361.79 484.765 361.275 485.474C360.769 486.176 360.104 486.746 359.28 487.182C358.456 487.608 357.551 487.823 356.564 487.823C355.517 487.823 354.603 487.639 353.822 487.271C353.049 486.903 352.406 486.399 351.891 485.758C351.384 485.114 351.002 484.378 350.745 483.551C350.496 482.712 350.372 481.827 350.372 480.894V480.355C350.372 479.423 350.496 478.542 350.745 477.712C351.002 476.874 351.384 476.133 351.891 475.492C352.406 474.851 353.049 474.346 353.822 473.978C354.603 473.61 355.517 473.427 356.564 473.427C357.653 473.427 358.606 473.65 359.421 474.094C360.237 474.53 360.876 475.129 361.339 475.891C361.812 476.643 362.069 477.499 362.112 478.456H359.846C359.803 477.883 359.64 477.365 359.357 476.903C359.082 476.443 358.705 476.075 358.224 475.799C357.752 475.518 357.199 475.376 356.564 475.376C355.834 475.376 355.221 475.523 354.723 475.812C354.234 476.096 353.843 476.48 353.551 476.969C353.268 477.447 353.062 477.983 352.934 478.571C352.813 479.155 352.753 479.748 352.753 480.355V480.894C352.753 481.501 352.813 482.1 352.934 482.691C353.054 483.28 353.255 483.816 353.538 484.294C353.83 484.772 354.221 485.159 354.71 485.448C355.208 485.732 355.826 485.871 356.564 485.871ZM370.569 487.823C369.6 487.823 368.72 487.66 367.93 487.334C367.149 487.001 366.476 486.536 365.909 485.936C365.351 485.337 364.922 484.628 364.622 483.805C364.322 482.986 364.172 482.087 364.172 481.112V480.574C364.172 479.444 364.339 478.44 364.674 477.557C365.008 476.669 365.463 475.915 366.038 475.3C366.613 474.685 367.265 474.217 367.995 473.902C368.724 473.584 369.479 473.427 370.26 473.427C371.256 473.427 372.114 473.597 372.835 473.939C373.564 474.283 374.161 474.761 374.624 475.376C375.088 475.983 375.431 476.703 375.654 477.533C375.877 478.353 375.989 479.252 375.989 480.227V481.291H365.588V479.354H373.607V479.176C373.573 478.558 373.444 477.959 373.221 477.378C373.007 476.798 372.663 476.317 372.191 475.941C371.719 475.565 371.076 475.376 370.26 475.376C369.72 475.376 369.222 475.492 368.767 475.723C368.312 475.946 367.922 476.28 367.596 476.724C367.27 477.168 367.017 477.712 366.836 478.353C366.656 478.994 366.566 479.735 366.566 480.574V481.112C366.566 481.772 366.656 482.392 366.836 482.973C367.025 483.545 367.295 484.05 367.647 484.486C368.008 484.922 368.441 485.264 368.947 485.513C369.462 485.76 370.046 485.884 370.698 485.884C371.539 485.884 372.251 485.713 372.835 485.372C373.418 485.03 373.929 484.573 374.367 484L375.809 485.14C375.508 485.595 375.126 486.026 374.663 486.436C374.2 486.848 373.629 487.182 372.951 487.437C372.281 487.694 371.488 487.823 370.569 487.823ZM386.879 483.884C386.879 483.54 386.802 483.225 386.647 482.933C386.502 482.634 386.197 482.366 385.734 482.126C385.279 481.877 384.592 481.664 383.674 481.485C382.901 481.322 382.202 481.128 381.576 480.907C380.958 480.684 380.43 480.416 379.992 480.098C379.563 479.783 379.233 479.41 379.001 478.981C378.769 478.556 378.653 478.054 378.653 477.481C378.653 476.934 378.774 476.417 379.014 475.928C379.263 475.442 379.61 475.008 380.057 474.633C380.512 474.257 381.056 473.963 381.692 473.747C382.326 473.534 383.035 473.427 383.815 473.427C384.931 473.427 385.884 473.624 386.673 474.018C387.463 474.409 388.068 474.937 388.488 475.594C388.909 476.246 389.119 476.968 389.119 477.765H386.738C386.738 477.378 386.622 477.005 386.39 476.648C386.167 476.28 385.836 475.975 385.399 475.736C384.97 475.497 384.442 475.376 383.815 475.376C383.155 475.376 382.618 475.479 382.206 475.686C381.803 475.881 381.507 476.133 381.318 476.443C381.138 476.75 381.048 477.074 381.048 477.418C381.048 477.673 381.091 477.904 381.176 478.109C381.271 478.306 381.434 478.49 381.666 478.661C381.897 478.824 382.224 478.979 382.644 479.123C383.065 479.268 383.601 479.415 384.253 479.559C385.395 479.817 386.334 480.124 387.072 480.484C387.81 480.842 388.36 481.283 388.72 481.806C389.081 482.326 389.261 482.959 389.261 483.703C389.261 484.31 389.132 484.867 388.875 485.372C388.626 485.876 388.261 486.312 387.78 486.68C387.308 487.04 386.742 487.321 386.081 487.526C385.429 487.723 384.695 487.823 383.88 487.823C382.653 487.823 381.614 487.605 380.765 487.169C379.915 486.733 379.271 486.168 378.834 485.474C378.396 484.78 378.177 484.05 378.177 483.28H380.572C380.606 483.932 380.795 484.447 381.138 484.833C381.481 485.209 381.902 485.479 382.399 485.642C382.897 485.795 383.391 485.871 383.88 485.871C384.532 485.871 385.077 485.787 385.515 485.616C385.961 485.445 386.3 485.209 386.532 484.909C386.763 484.61 386.879 484.268 386.879 483.884Z" fill="white"/>
</svg>
