<svg width="1200" height="715" viewBox="0 0 1200 715" fill="none" xmlns="http://www.w3.org/2000/svg">
<rect width="1200" height="715" fill="white"/>
<path d="M387.776 482.832C387.824 482.656 387.856 482.392 387.872 482.04C387.904 481.688 387.944 481.36 387.992 481.056L387.968 480.984C387.76 481.272 387.512 481.552 387.224 481.824C386.936 482.096 386.616 482.344 386.264 482.568C385.928 482.776 385.56 482.944 385.16 483.072C384.776 483.2 384.368 483.264 383.936 483.264C383.44 483.264 383 483.176 382.616 483C382.232 482.824 381.912 482.592 381.656 482.304C381.4 482.016 381.208 481.68 381.08 481.296C380.952 480.912 380.888 480.512 380.888 480.096C380.888 479.504 381.024 478.992 381.296 478.56C381.568 478.112 381.928 477.744 382.376 477.456C382.792 477.2 383.28 476.992 383.84 476.832C384.416 476.672 384.968 476.56 385.496 476.496C386.04 476.416 386.528 476.368 386.96 476.352C387.392 476.32 387.68 476.304 387.824 476.304H388.16C388.144 475.712 388.112 475.248 388.064 474.912C388.016 474.56 387.952 474.272 387.872 474.048C387.696 473.568 387.392 473.224 386.96 473.016C386.528 472.792 386.008 472.68 385.4 472.68C385.144 472.68 384.864 472.704 384.56 472.752C384.272 472.8 383.992 472.888 383.72 473.016C383.464 473.144 383.24 473.328 383.048 473.568C382.856 473.792 382.744 474.088 382.712 474.456L382.616 474.528H382.088L381.872 472.752L381.944 472.608C382.024 472.512 382.192 472.408 382.448 472.296C382.704 472.184 383 472.08 383.336 471.984C383.688 471.872 384.072 471.784 384.488 471.72C384.92 471.64 385.344 471.6 385.76 471.6C386.336 471.6 386.872 471.68 387.368 471.84C387.864 471.984 388.288 472.208 388.64 472.512C389.008 472.816 389.296 473.2 389.504 473.664C389.712 474.112 389.816 474.64 389.816 475.248C389.816 475.92 389.808 476.52 389.792 477.048C389.792 477.56 389.784 478.04 389.768 478.488C389.752 478.92 389.736 479.352 389.72 479.784C389.72 480.2 389.72 480.648 389.72 481.128C389.752 481.496 389.792 481.768 389.84 481.944C389.888 482.104 389.968 482.224 390.08 482.304C390.208 482.432 390.392 482.512 390.632 482.544C390.888 482.56 391.144 482.568 391.4 482.568L391.496 482.664L391.52 483L391.496 483.096C391.208 483.064 390.896 483.04 390.56 483.024C390.224 483.008 389.896 483 389.576 483C388.968 483 388.416 483.024 387.92 483.072L387.776 482.832ZM387.776 480.24C387.824 480.16 387.872 480.064 387.92 479.952C387.984 479.84 388.024 479.704 388.04 479.544L388.16 477.144H387.944C387.304 477.144 386.664 477.184 386.024 477.264C385.384 477.328 384.808 477.464 384.296 477.672C383.8 477.88 383.392 478.168 383.072 478.536C382.752 478.904 382.592 479.376 382.592 479.952C382.592 480.56 382.768 481.048 383.12 481.416C383.472 481.768 383.928 481.944 384.488 481.944C384.824 481.944 385.16 481.888 385.496 481.776C385.832 481.664 386.144 481.52 386.432 481.344C386.736 481.168 387 480.984 387.224 480.792C387.464 480.6 387.648 480.416 387.776 480.24ZM404.776 473.088H401.656C401.656 474.128 401.648 475.088 401.632 475.968C401.632 476.848 401.632 477.624 401.632 478.296C401.632 478.952 401.624 479.48 401.608 479.88C401.608 480.28 401.608 480.528 401.608 480.624C401.608 481.248 401.728 481.664 401.968 481.872C402.208 482.08 402.488 482.184 402.808 482.184C403.08 482.184 403.392 482.136 403.744 482.04C404.112 481.928 404.408 481.808 404.632 481.68L404.848 481.848L404.632 482.52C404.264 482.776 403.848 482.96 403.384 483.072C402.936 483.2 402.536 483.264 402.184 483.264C401.368 483.264 400.792 483.04 400.456 482.592C400.12 482.144 399.952 481.568 399.952 480.864C399.952 480.72 399.96 480.424 399.976 479.976C399.992 479.528 400.008 478.968 400.024 478.296C400.04 477.624 400.056 476.848 400.072 475.968C400.088 475.088 400.096 474.128 400.096 473.088H398.368L398.272 472.968V472.512L398.368 472.416L400.096 472.08C400.096 471.52 400.08 470.952 400.048 470.376C400.032 469.784 400.008 469.208 399.976 468.648L400.144 468.504L400.48 468.48C400.608 468.464 400.816 468.432 401.104 468.384C401.392 468.336 401.592 468.28 401.704 468.216L401.92 468.312C401.872 468.536 401.832 468.8 401.8 469.104C401.768 469.392 401.736 469.704 401.704 470.04C401.688 470.376 401.672 470.72 401.656 471.072C401.656 471.424 401.656 471.76 401.656 472.08L404.776 471.936L404.896 472.032V472.968L404.776 473.088ZM417.02 476.544L416.636 476.712C415.772 476.712 414.884 476.72 413.972 476.736C413.06 476.752 412.164 476.76 411.284 476.76H408.452C408.436 476.872 408.428 476.984 408.428 477.096C408.428 477.192 408.428 477.288 408.428 477.384C408.428 477.992 408.516 478.576 408.692 479.136C408.868 479.68 409.14 480.16 409.508 480.576C409.892 480.992 410.38 481.328 410.972 481.584C411.564 481.824 412.284 481.944 413.132 481.944C413.628 481.944 414.156 481.896 414.716 481.8C415.292 481.688 415.82 481.496 416.3 481.224L416.54 481.368V481.8L416.3 482.064C415.916 482.368 415.372 482.648 414.668 482.904C413.964 483.144 413.18 483.264 412.316 483.264C411.468 483.264 410.692 483.128 409.988 482.856C409.3 482.568 408.7 482.168 408.188 481.656C407.692 481.144 407.3 480.536 407.012 479.832C406.74 479.128 406.604 478.344 406.604 477.48C406.604 476.6 406.748 475.8 407.036 475.08C407.324 474.36 407.716 473.744 408.212 473.232C408.724 472.72 409.316 472.32 409.988 472.032C410.676 471.744 411.412 471.6 412.196 471.6C412.612 471.6 413.076 471.656 413.588 471.768C414.116 471.88 414.62 472.096 415.1 472.416C415.58 472.72 416.012 473.16 416.396 473.736C416.78 474.296 417.044 475.04 417.188 475.968L417.02 476.544ZM412.22 472.68C411.708 472.68 411.244 472.768 410.828 472.944C410.428 473.104 410.068 473.328 409.748 473.616C409.444 473.888 409.188 474.216 408.98 474.6C408.788 474.968 408.652 475.36 408.572 475.776H409.508C410.372 475.776 411.212 475.768 412.028 475.752C412.844 475.72 413.7 475.68 414.596 475.632C414.804 475.616 414.94 475.56 415.004 475.464C415.084 475.368 415.124 475.256 415.124 475.128C415.124 475.032 415.116 474.944 415.1 474.864C415.084 474.784 415.06 474.704 415.028 474.624C414.852 474.016 414.524 473.544 414.044 473.208C413.564 472.856 412.956 472.68 412.22 472.68ZM428.357 474.528L428.261 474.456C428.261 474.088 428.149 473.792 427.925 473.568C427.717 473.328 427.461 473.144 427.157 473.016C426.853 472.888 426.525 472.8 426.173 472.752C425.837 472.704 425.541 472.68 425.285 472.68C424.549 472.68 423.909 472.816 423.365 473.088C422.837 473.344 422.397 473.696 422.045 474.144C421.693 474.576 421.429 475.08 421.253 475.656C421.093 476.216 421.013 476.792 421.013 477.384C421.013 477.992 421.101 478.576 421.277 479.136C421.469 479.696 421.757 480.192 422.141 480.624C422.525 481.056 423.005 481.4 423.581 481.656C424.157 481.912 424.845 482.04 425.645 482.04C426.189 482.04 426.789 481.96 427.445 481.8C428.117 481.624 428.693 481.408 429.173 481.152L429.413 481.392L429.053 482.064C428.877 482.192 428.645 482.328 428.357 482.472C428.085 482.6 427.773 482.728 427.421 482.856C427.069 482.968 426.685 483.064 426.269 483.144C425.869 483.224 425.469 483.264 425.069 483.264C424.285 483.264 423.533 483.128 422.813 482.856C422.109 482.568 421.485 482.176 420.941 481.68C420.413 481.168 419.989 480.56 419.669 479.856C419.349 479.136 419.189 478.344 419.189 477.48C419.189 476.6 419.349 475.8 419.669 475.08C419.989 474.36 420.429 473.744 420.989 473.232C421.549 472.72 422.197 472.32 422.933 472.032C423.685 471.744 424.485 471.6 425.333 471.6C426.101 471.6 426.821 471.696 427.493 471.888C428.181 472.08 428.701 472.272 429.053 472.464L429.125 472.68L428.861 474.528H428.357ZM440.52 482.832C440.584 482.624 440.632 482.352 440.664 482.016C440.696 481.68 440.72 481.384 440.736 481.128C440.768 480.456 440.792 479.8 440.808 479.16C440.824 478.504 440.832 477.96 440.832 477.528C440.832 477.16 440.816 476.76 440.784 476.328C440.768 475.896 440.72 475.52 440.64 475.2C440.48 474.448 440.152 473.888 439.656 473.52C439.16 473.152 438.584 472.968 437.928 472.968C437.4 472.968 436.904 473.088 436.44 473.328C435.992 473.552 435.608 473.832 435.288 474.168C434.968 474.488 434.712 474.832 434.52 475.2C434.344 475.552 434.256 475.848 434.256 476.088C434.256 476.952 434.256 477.648 434.256 478.176C434.256 478.688 434.256 479.12 434.256 479.472C434.272 479.824 434.28 480.12 434.28 480.36C434.296 480.584 434.32 480.84 434.352 481.128C434.384 481.464 434.416 481.72 434.448 481.896C434.496 482.056 434.584 482.192 434.712 482.304C434.84 482.416 435.016 482.488 435.24 482.52C435.48 482.552 435.72 482.568 435.96 482.568L436.08 482.688L436.128 483L436.08 483.096C435.968 483.096 435.8 483.088 435.576 483.072C435.352 483.056 435.112 483.04 434.856 483.024C434.6 483.024 434.36 483.016 434.136 483C433.912 483 433.744 483 433.632 483H433.296C433.184 483 433.008 483 432.768 483C432.544 483.016 432.304 483.024 432.048 483.024C431.808 483.04 431.568 483.056 431.328 483.072C431.104 483.088 430.936 483.096 430.824 483.096L430.8 483L430.824 482.664L430.92 482.568C431.176 482.568 431.424 482.56 431.664 482.544C431.92 482.512 432.112 482.432 432.24 482.304C432.368 482.192 432.448 482.048 432.48 481.872C432.528 481.696 432.568 481.448 432.6 481.128C432.616 480.92 432.624 480.712 432.624 480.504C432.64 480.296 432.648 480.056 432.648 479.784C432.664 479.496 432.672 479.168 432.672 478.8C432.672 478.416 432.672 477.944 432.672 477.384V471.624C432.672 470.968 432.672 470.416 432.672 469.968C432.672 469.504 432.664 469.104 432.648 468.768C432.648 468.432 432.64 468.136 432.624 467.88C432.624 467.624 432.616 467.368 432.6 467.112C432.584 466.936 432.536 466.784 432.456 466.656C432.392 466.528 432.336 466.432 432.288 466.368C432.128 466.192 431.928 466.08 431.688 466.032C431.448 465.984 431.2 465.96 430.944 465.96L430.848 465.864V465.552L430.944 465.456H431.376C431.648 465.456 431.992 465.456 432.408 465.456C432.824 465.44 433.184 465.408 433.488 465.36L434.328 465.24L434.472 465.456C434.44 465.52 434.416 465.64 434.4 465.816C434.384 465.976 434.368 466.152 434.352 466.344C434.336 466.536 434.328 466.72 434.328 466.896C434.328 467.072 434.328 467.208 434.328 467.304C434.328 467.816 434.312 468.432 434.28 469.152C434.264 469.856 434.256 470.664 434.256 471.576C434.256 472.248 434.248 472.776 434.232 473.16C434.232 473.544 434.216 473.848 434.184 474.072L434.256 474.12C434.656 473.416 435.192 472.824 435.864 472.344C436.536 471.848 437.368 471.6 438.36 471.6C438.808 471.6 439.256 471.664 439.704 471.792C440.168 471.92 440.584 472.12 440.952 472.392C441.32 472.664 441.632 473.008 441.888 473.424C442.144 473.84 442.304 474.336 442.368 474.912C442.416 475.328 442.44 475.808 442.44 476.352C442.456 476.88 442.464 477.312 442.464 477.648V481.032C442.464 481.4 442.496 481.688 442.56 481.896C442.64 482.088 442.728 482.224 442.824 482.304C442.968 482.432 443.16 482.512 443.4 482.544C443.656 482.56 443.912 482.568 444.168 482.568L444.24 482.664L444.288 483L444.24 483.096C443.968 483.064 443.664 483.04 443.328 483.024C442.992 483.008 442.664 483 442.344 483C441.736 483 441.184 483.024 440.688 483.072L440.52 482.832ZM448.913 474.024C449.329 473.336 449.865 472.76 450.521 472.296C451.177 471.832 451.993 471.6 452.969 471.6C453.417 471.6 453.865 471.664 454.313 471.792C454.761 471.92 455.169 472.12 455.537 472.392C455.921 472.664 456.233 473.016 456.473 473.448C456.729 473.864 456.897 474.36 456.977 474.936C457.025 475.352 457.049 475.792 457.049 476.256C457.065 476.72 457.073 477.184 457.073 477.648C457.073 478.224 457.073 478.808 457.073 479.4C457.089 479.976 457.097 480.552 457.097 481.128C457.129 481.496 457.169 481.768 457.217 481.944C457.265 482.104 457.337 482.224 457.433 482.304C457.577 482.432 457.769 482.512 458.009 482.544C458.265 482.56 458.521 482.568 458.777 482.568L458.849 482.664L458.897 483L458.849 483.096C458.577 483.064 458.273 483.04 457.937 483.024C457.601 483.008 457.273 483 456.953 483C456.345 483 455.793 483.024 455.297 483.072L455.129 482.832C455.193 482.624 455.241 482.352 455.273 482.016C455.305 481.68 455.329 481.384 455.345 481.128C455.377 480.456 455.401 479.8 455.417 479.16C455.433 478.504 455.441 477.96 455.441 477.528C455.441 477.16 455.425 476.76 455.393 476.328C455.377 475.896 455.329 475.52 455.249 475.2C455.089 474.448 454.761 473.888 454.265 473.52C453.769 473.152 453.193 472.968 452.537 472.968C452.009 472.968 451.513 473.08 451.049 473.304C450.601 473.528 450.217 473.808 449.897 474.144C449.577 474.464 449.321 474.808 449.129 475.176C448.953 475.528 448.865 475.832 448.865 476.088V478.8C448.865 479.152 448.865 479.44 448.865 479.664C448.865 479.888 448.865 480.08 448.865 480.24C448.881 480.4 448.897 480.552 448.913 480.696C448.929 480.824 448.945 480.968 448.961 481.128C448.993 481.464 449.025 481.72 449.057 481.896C449.105 482.056 449.193 482.192 449.321 482.304C449.449 482.416 449.625 482.488 449.849 482.52C450.089 482.552 450.329 482.568 450.569 482.568L450.689 482.688L450.737 483L450.689 483.096C450.577 483.096 450.409 483.088 450.185 483.072C449.961 483.056 449.721 483.04 449.465 483.024C449.209 483.024 448.969 483.016 448.745 483C448.521 483 448.353 483 448.241 483H447.905C447.793 483 447.617 483 447.377 483C447.153 483.016 446.913 483.024 446.657 483.024C446.417 483.04 446.177 483.056 445.937 483.072C445.713 483.088 445.545 483.096 445.433 483.096L445.409 483L445.433 482.664L445.529 482.568C445.785 482.568 446.033 482.56 446.273 482.544C446.529 482.512 446.721 482.432 446.849 482.304C446.977 482.192 447.057 482.048 447.089 481.872C447.137 481.696 447.177 481.448 447.209 481.128C447.225 480.872 447.241 480.616 447.257 480.36C447.273 480.088 447.281 479.664 447.281 479.088V476.136C447.281 475.8 447.281 475.52 447.281 475.296C447.281 475.056 447.273 474.848 447.257 474.672C447.257 474.496 447.249 474.336 447.233 474.192C447.233 474.048 447.225 473.896 447.209 473.736C447.177 473.56 447.129 473.408 447.065 473.28C447.001 473.136 446.945 473.04 446.897 472.992C446.737 472.8 446.537 472.688 446.297 472.656C446.057 472.608 445.809 472.584 445.553 472.584L445.457 472.488V472.152L445.553 472.08H445.985C446.257 472.08 446.601 472.08 447.017 472.08C447.433 472.064 447.793 472.032 448.097 471.984L448.937 471.864L449.081 472.08C449.001 472.288 448.945 472.576 448.913 472.944C448.881 473.296 448.857 473.64 448.841 473.976L448.913 474.024ZM466.25 471.6C467.194 471.6 468.034 471.768 468.77 472.104C469.506 472.424 470.122 472.864 470.618 473.424C471.13 473.968 471.514 474.6 471.77 475.32C472.042 476.04 472.178 476.784 472.178 477.552C472.178 478.288 472.058 479 471.818 479.688C471.578 480.376 471.21 480.984 470.714 481.512C470.218 482.04 469.602 482.464 468.866 482.784C468.13 483.104 467.274 483.264 466.298 483.264C465.29 483.264 464.41 483.096 463.658 482.76C462.906 482.424 462.282 481.984 461.786 481.44C461.306 480.896 460.946 480.28 460.706 479.592C460.466 478.888 460.346 478.168 460.346 477.432C460.346 476.648 460.482 475.904 460.754 475.2C461.026 474.496 461.41 473.88 461.906 473.352C462.418 472.808 463.034 472.384 463.754 472.08C464.49 471.76 465.322 471.6 466.25 471.6ZM466.274 482.328C466.946 482.328 467.538 482.192 468.05 481.92C468.562 481.648 468.986 481.288 469.322 480.84C469.658 480.392 469.906 479.888 470.066 479.328C470.242 478.752 470.33 478.16 470.33 477.552C470.33 476.976 470.234 476.392 470.042 475.8C469.866 475.208 469.602 474.68 469.25 474.216C468.898 473.736 468.466 473.352 467.954 473.064C467.442 472.76 466.85 472.608 466.178 472.608C465.474 472.608 464.866 472.752 464.354 473.04C463.858 473.312 463.442 473.672 463.106 474.12C462.786 474.568 462.546 475.08 462.386 475.656C462.226 476.232 462.146 476.808 462.146 477.384C462.146 477.976 462.234 478.568 462.41 479.16C462.602 479.736 462.874 480.264 463.226 480.744C463.578 481.208 464.01 481.592 464.522 481.896C465.034 482.184 465.618 482.328 466.274 482.328ZM489.271 474.528L489.175 474.456C489.175 474.088 489.063 473.792 488.839 473.568C488.631 473.328 488.375 473.144 488.071 473.016C487.767 472.888 487.439 472.8 487.087 472.752C486.751 472.704 486.455 472.68 486.199 472.68C485.463 472.68 484.823 472.816 484.279 473.088C483.751 473.344 483.311 473.696 482.959 474.144C482.607 474.576 482.343 475.08 482.167 475.656C482.007 476.216 481.927 476.792 481.927 477.384C481.927 477.992 482.015 478.576 482.191 479.136C482.383 479.696 482.671 480.192 483.055 480.624C483.439 481.056 483.919 481.4 484.495 481.656C485.071 481.912 485.759 482.04 486.559 482.04C487.103 482.04 487.703 481.96 488.359 481.8C489.031 481.624 489.607 481.408 490.087 481.152L490.327 481.392L489.967 482.064C489.791 482.192 489.559 482.328 489.271 482.472C488.999 482.6 488.687 482.728 488.335 482.856C487.983 482.968 487.599 483.064 487.183 483.144C486.783 483.224 486.383 483.264 485.983 483.264C485.199 483.264 484.447 483.128 483.727 482.856C483.023 482.568 482.399 482.176 481.855 481.68C481.327 481.168 480.903 480.56 480.583 479.856C480.263 479.136 480.103 478.344 480.103 477.48C480.103 476.6 480.263 475.8 480.583 475.08C480.903 474.36 481.343 473.744 481.903 473.232C482.463 472.72 483.111 472.32 483.847 472.032C484.599 471.744 485.399 471.6 486.247 471.6C487.015 471.6 487.735 471.696 488.407 471.888C489.095 472.08 489.615 472.272 489.967 472.464L490.039 472.68L489.775 474.528H489.271ZM491.858 465.552L491.954 465.456H492.386C492.658 465.456 493.002 465.456 493.418 465.456C493.834 465.44 494.194 465.408 494.498 465.36L495.362 465.24L495.506 465.456C495.474 465.52 495.45 465.64 495.434 465.816C495.418 465.976 495.402 466.152 495.386 466.344C495.37 466.536 495.354 466.72 495.338 466.896C495.338 467.072 495.338 467.208 495.338 467.304C495.322 467.56 495.306 467.8 495.29 468.024C495.29 468.248 495.282 468.512 495.266 468.816C495.266 469.12 495.266 469.488 495.266 469.92C495.266 470.352 495.266 470.904 495.266 471.576V476.808C495.266 477.48 495.266 478.032 495.266 478.464C495.282 478.896 495.29 479.264 495.29 479.568C495.306 479.872 495.314 480.136 495.314 480.36C495.33 480.584 495.346 480.84 495.362 481.128C495.394 481.464 495.426 481.72 495.458 481.896C495.506 482.056 495.594 482.192 495.722 482.304C495.85 482.416 496.026 482.488 496.25 482.52C496.49 482.552 496.73 482.568 496.97 482.568L497.09 482.688L497.138 483L497.09 483.096C496.978 483.096 496.81 483.088 496.586 483.072C496.362 483.056 496.122 483.04 495.866 483.024C495.61 483.024 495.37 483.016 495.146 483C494.922 483 494.754 483 494.642 483H494.306C494.194 483 494.018 483 493.778 483C493.554 483.016 493.314 483.024 493.058 483.024C492.818 483.04 492.578 483.056 492.338 483.072C492.114 483.088 491.946 483.096 491.834 483.096L491.81 483L491.834 482.664L491.93 482.568C492.186 482.568 492.434 482.56 492.674 482.544C492.93 482.512 493.122 482.432 493.25 482.304C493.378 482.192 493.458 482.048 493.49 481.872C493.538 481.696 493.578 481.448 493.61 481.128C493.626 480.92 493.634 480.712 493.634 480.504C493.65 480.296 493.658 480.056 493.658 479.784C493.674 479.496 493.682 479.168 493.682 478.8C493.682 478.416 493.682 477.944 493.682 477.384V471.624C493.682 470.968 493.682 470.416 493.682 469.968C493.682 469.504 493.674 469.104 493.658 468.768C493.658 468.432 493.65 468.136 493.634 467.88C493.634 467.624 493.626 467.368 493.61 467.112C493.594 466.936 493.546 466.784 493.466 466.656C493.402 466.528 493.346 466.432 493.298 466.368C493.138 466.192 492.938 466.08 492.698 466.032C492.458 465.984 492.21 465.96 491.954 465.96L491.858 465.864V465.552ZM507.999 480.936C507.583 481.608 507.047 482.168 506.391 482.616C505.751 483.048 504.959 483.264 504.015 483.264C503.551 483.264 503.103 483.208 502.671 483.096C502.255 483 501.863 482.832 501.495 482.592C501.143 482.352 500.839 482.032 500.583 481.632C500.327 481.232 500.143 480.728 500.031 480.12C499.951 479.704 499.911 479.272 499.911 478.824C499.927 478.36 499.927 477.896 499.911 477.432C499.911 477.224 499.903 476.944 499.887 476.592C499.887 476.224 499.887 475.856 499.887 475.488C499.887 475.104 499.887 474.752 499.887 474.432C499.887 474.112 499.887 473.88 499.887 473.736C499.887 473.56 499.847 473.408 499.767 473.28C499.687 473.136 499.623 473.032 499.575 472.968C499.415 472.792 499.215 472.688 498.975 472.656C498.735 472.608 498.487 472.584 498.231 472.584L498.159 472.488V472.152L498.231 472.08H498.663C498.935 472.08 499.279 472.08 499.695 472.08C500.111 472.064 500.471 472.032 500.775 471.984L501.615 471.864L501.759 472.08C501.727 472.144 501.703 472.264 501.687 472.44C501.671 472.6 501.655 472.776 501.639 472.968C501.623 473.16 501.615 473.344 501.615 473.52C501.615 473.696 501.615 473.832 501.615 473.928C501.615 474.2 501.607 474.504 501.591 474.84C501.591 475.16 501.583 475.488 501.567 475.824C501.567 476.16 501.559 476.48 501.543 476.784C501.543 477.088 501.543 477.344 501.543 477.552C501.543 477.904 501.551 478.304 501.567 478.752C501.599 479.184 501.655 479.56 501.735 479.88C501.895 480.632 502.223 481.192 502.719 481.56C503.215 481.928 503.791 482.112 504.447 482.112C504.943 482.112 505.399 482.016 505.815 481.824C506.231 481.616 506.591 481.368 506.895 481.08C507.215 480.792 507.471 480.488 507.663 480.168C507.871 479.832 508.007 479.528 508.071 479.256V476.136C508.071 475.8 508.063 475.52 508.047 475.296C508.047 475.056 508.039 474.848 508.023 474.672C508.023 474.496 508.015 474.336 507.999 474.192C507.999 474.048 507.991 473.896 507.975 473.736C507.943 473.56 507.895 473.408 507.831 473.28C507.783 473.136 507.735 473.04 507.687 472.992C507.527 472.8 507.327 472.688 507.087 472.656C506.847 472.608 506.599 472.584 506.343 472.584L506.247 472.488V472.152L506.343 472.08H506.775C507.047 472.08 507.391 472.08 507.807 472.08C508.223 472.064 508.575 472.032 508.863 471.984L509.703 471.864L509.847 472.08C509.815 472.144 509.791 472.264 509.775 472.44C509.759 472.6 509.743 472.776 509.727 472.968C509.711 473.16 509.703 473.344 509.703 473.52C509.703 473.696 509.703 473.832 509.703 473.928C509.703 474.056 509.695 474.176 509.679 474.288C509.679 474.4 509.679 474.536 509.679 474.696C509.679 474.856 509.671 475.048 509.655 475.272C509.655 475.48 509.655 475.76 509.655 476.112V478.8C509.655 479.152 509.655 479.44 509.655 479.664C509.671 479.888 509.679 480.08 509.679 480.24C509.695 480.4 509.703 480.552 509.703 480.696C509.719 480.824 509.727 480.968 509.727 481.128C509.759 481.496 509.799 481.768 509.847 481.944C509.895 482.104 509.975 482.224 510.087 482.304C510.215 482.432 510.399 482.512 510.639 482.544C510.895 482.56 511.151 482.568 511.407 482.568L511.503 482.664L511.551 483L511.503 483.096C511.215 483.064 510.903 483.04 510.567 483.024C510.231 483.008 509.903 483 509.583 483C508.975 483 508.423 483.024 507.927 483.072L507.783 482.832C507.831 482.624 507.879 482.352 507.927 482.016C507.991 481.68 508.039 481.336 508.071 480.984L507.999 480.936ZM516.054 481.08C516.054 481.4 516.086 481.728 516.15 482.064C516.23 482.4 516.302 482.656 516.366 482.832L516.198 483H515.094C514.982 483 514.806 483 514.566 483C514.342 483.016 514.102 483.024 513.846 483.024C513.606 483.04 513.366 483.056 513.126 483.072C512.902 483.088 512.734 483.096 512.622 483.096L512.598 483L512.622 482.664L512.718 482.568C512.974 482.568 513.222 482.56 513.462 482.544C513.718 482.512 513.91 482.432 514.038 482.304C514.166 482.192 514.246 482.048 514.278 481.872C514.326 481.696 514.366 481.448 514.398 481.128L514.422 480.912C514.422 480.768 514.422 480.608 514.422 480.432C514.438 480.24 514.446 480.016 514.446 479.76C514.462 479.488 514.47 479.168 514.47 478.8C514.47 478.416 514.47 477.944 514.47 477.384V471.624C514.47 470.968 514.47 470.416 514.47 469.968C514.47 469.504 514.462 469.104 514.446 468.768C514.446 468.432 514.438 468.144 514.422 467.904C514.422 467.648 514.414 467.384 514.398 467.112C514.382 466.936 514.334 466.784 514.254 466.656C514.19 466.528 514.134 466.432 514.086 466.368C513.926 466.192 513.726 466.08 513.486 466.032C513.246 465.984 512.998 465.96 512.742 465.96L512.646 465.864V465.552L512.742 465.456H513.174C513.446 465.456 513.79 465.456 514.206 465.456C514.622 465.44 514.982 465.408 515.286 465.36L516.126 465.24L516.27 465.456C516.238 465.52 516.206 465.64 516.174 465.816C516.158 465.976 516.142 466.152 516.126 466.344C516.11 466.536 516.094 466.72 516.078 466.896C516.078 467.072 516.078 467.208 516.078 467.304C516.078 467.56 516.078 467.8 516.078 468.024C516.078 468.248 516.07 468.512 516.054 468.816C516.054 469.12 516.054 469.488 516.054 469.92C516.054 470.352 516.054 470.904 516.054 471.576C516.054 472.264 516.046 472.768 516.03 473.088C516.014 473.392 515.998 473.64 515.982 473.832L516.054 473.88C516.518 473.208 517.086 472.664 517.758 472.248C518.43 471.816 519.19 471.6 520.038 471.6C520.95 471.6 521.734 471.76 522.39 472.08C523.062 472.4 523.614 472.824 524.046 473.352C524.478 473.88 524.798 474.488 525.006 475.176C525.214 475.848 525.318 476.552 525.318 477.288C525.318 478.376 525.15 479.304 524.814 480.072C524.478 480.824 524.046 481.44 523.518 481.92C523.006 482.384 522.438 482.728 521.814 482.952C521.206 483.16 520.622 483.264 520.062 483.264C519.294 483.264 518.566 483.096 517.878 482.76C517.206 482.424 516.622 481.848 516.126 481.032L516.054 481.08ZM523.494 477.336C523.494 476.792 523.422 476.256 523.278 475.728C523.134 475.2 522.91 474.736 522.606 474.336C522.318 473.92 521.95 473.592 521.502 473.352C521.054 473.096 520.526 472.968 519.918 472.968C519.294 472.968 518.742 473.088 518.262 473.328C517.782 473.568 517.374 473.856 517.038 474.192C516.718 474.528 516.47 474.88 516.294 475.248C516.134 475.6 516.054 475.904 516.054 476.16V478.776C516.102 479.032 516.214 479.344 516.39 479.712C516.566 480.064 516.806 480.408 517.11 480.744C517.43 481.08 517.814 481.368 518.262 481.608C518.71 481.832 519.246 481.944 519.87 481.944C520.494 481.944 521.03 481.816 521.478 481.56C521.942 481.288 522.318 480.936 522.606 480.504C522.91 480.072 523.134 479.584 523.278 479.04C523.422 478.48 523.494 477.912 523.494 477.336ZM532.827 465.552L532.923 465.456H533.355C533.627 465.456 533.971 465.456 534.387 465.456C534.803 465.44 535.163 465.408 535.467 465.36L536.331 465.24L536.475 465.456C536.443 465.52 536.419 465.64 536.403 465.816C536.387 465.976 536.371 466.152 536.355 466.344C536.339 466.536 536.323 466.72 536.307 466.896C536.307 467.072 536.307 467.208 536.307 467.304C536.291 467.56 536.275 467.8 536.259 468.024C536.259 468.248 536.251 468.512 536.235 468.816C536.235 469.12 536.235 469.488 536.235 469.92C536.235 470.352 536.235 470.904 536.235 471.576V476.808C536.235 477.48 536.235 478.032 536.235 478.464C536.251 478.896 536.259 479.264 536.259 479.568C536.275 479.872 536.283 480.136 536.283 480.36C536.299 480.584 536.315 480.84 536.331 481.128C536.363 481.464 536.395 481.72 536.427 481.896C536.475 482.056 536.563 482.192 536.691 482.304C536.819 482.416 536.995 482.488 537.219 482.52C537.459 482.552 537.699 482.568 537.939 482.568L538.059 482.688L538.107 483L538.059 483.096C537.947 483.096 537.779 483.088 537.555 483.072C537.331 483.056 537.091 483.04 536.835 483.024C536.579 483.024 536.339 483.016 536.115 483C535.891 483 535.723 483 535.611 483H535.275C535.163 483 534.987 483 534.747 483C534.523 483.016 534.283 483.024 534.027 483.024C533.787 483.04 533.547 483.056 533.307 483.072C533.083 483.088 532.915 483.096 532.803 483.096L532.779 483L532.803 482.664L532.899 482.568C533.155 482.568 533.403 482.56 533.643 482.544C533.899 482.512 534.091 482.432 534.219 482.304C534.347 482.192 534.427 482.048 534.459 481.872C534.507 481.696 534.547 481.448 534.579 481.128C534.595 480.92 534.603 480.712 534.603 480.504C534.619 480.296 534.627 480.056 534.627 479.784C534.643 479.496 534.651 479.168 534.651 478.8C534.651 478.416 534.651 477.944 534.651 477.384V471.624C534.651 470.968 534.651 470.416 534.651 469.968C534.651 469.504 534.643 469.104 534.627 468.768C534.627 468.432 534.619 468.136 534.603 467.88C534.603 467.624 534.595 467.368 534.579 467.112C534.563 466.936 534.515 466.784 534.435 466.656C534.371 466.528 534.315 466.432 534.267 466.368C534.107 466.192 533.907 466.08 533.667 466.032C533.427 465.984 533.179 465.96 532.923 465.96L532.827 465.864V465.552ZM545.656 471.6C546.6 471.6 547.44 471.768 548.176 472.104C548.912 472.424 549.528 472.864 550.024 473.424C550.536 473.968 550.92 474.6 551.176 475.32C551.448 476.04 551.584 476.784 551.584 477.552C551.584 478.288 551.464 479 551.224 479.688C550.984 480.376 550.616 480.984 550.12 481.512C549.624 482.04 549.008 482.464 548.272 482.784C547.536 483.104 546.68 483.264 545.704 483.264C544.696 483.264 543.816 483.096 543.064 482.76C542.312 482.424 541.688 481.984 541.192 481.44C540.712 480.896 540.352 480.28 540.112 479.592C539.872 478.888 539.752 478.168 539.752 477.432C539.752 476.648 539.888 475.904 540.16 475.2C540.432 474.496 540.816 473.88 541.312 473.352C541.824 472.808 542.44 472.384 543.16 472.08C543.896 471.76 544.728 471.6 545.656 471.6ZM545.68 482.328C546.352 482.328 546.944 482.192 547.456 481.92C547.968 481.648 548.392 481.288 548.728 480.84C549.064 480.392 549.312 479.888 549.472 479.328C549.648 478.752 549.736 478.16 549.736 477.552C549.736 476.976 549.64 476.392 549.448 475.8C549.272 475.208 549.008 474.68 548.656 474.216C548.304 473.736 547.872 473.352 547.36 473.064C546.848 472.76 546.256 472.608 545.584 472.608C544.88 472.608 544.272 472.752 543.76 473.04C543.264 473.312 542.848 473.672 542.512 474.12C542.192 474.568 541.952 475.08 541.792 475.656C541.632 476.232 541.552 476.808 541.552 477.384C541.552 477.976 541.64 478.568 541.816 479.16C542.008 479.736 542.28 480.264 542.632 480.744C542.984 481.208 543.416 481.592 543.928 481.896C544.44 482.184 545.024 482.328 545.68 482.328ZM562.912 474.528L562.816 474.456C562.816 474.088 562.704 473.792 562.48 473.568C562.272 473.328 562.016 473.144 561.712 473.016C561.408 472.888 561.08 472.8 560.728 472.752C560.392 472.704 560.096 472.68 559.84 472.68C559.104 472.68 558.464 472.816 557.92 473.088C557.392 473.344 556.952 473.696 556.6 474.144C556.248 474.576 555.984 475.08 555.808 475.656C555.648 476.216 555.568 476.792 555.568 477.384C555.568 477.992 555.656 478.576 555.832 479.136C556.024 479.696 556.312 480.192 556.696 480.624C557.08 481.056 557.56 481.4 558.136 481.656C558.712 481.912 559.4 482.04 560.2 482.04C560.744 482.04 561.344 481.96 562 481.8C562.672 481.624 563.248 481.408 563.728 481.152L563.968 481.392L563.608 482.064C563.432 482.192 563.2 482.328 562.912 482.472C562.64 482.6 562.328 482.728 561.976 482.856C561.624 482.968 561.24 483.064 560.824 483.144C560.424 483.224 560.024 483.264 559.624 483.264C558.84 483.264 558.088 483.128 557.368 482.856C556.664 482.568 556.04 482.176 555.496 481.68C554.968 481.168 554.544 480.56 554.224 479.856C553.904 479.136 553.744 478.344 553.744 477.48C553.744 476.6 553.904 475.8 554.224 475.08C554.544 474.36 554.984 473.744 555.544 473.232C556.104 472.72 556.752 472.32 557.488 472.032C558.24 471.744 559.04 471.6 559.888 471.6C560.656 471.6 561.376 471.696 562.048 471.888C562.736 472.08 563.256 472.272 563.608 472.464L563.68 472.68L563.416 474.528H562.912ZM572.651 482.832C572.699 482.656 572.731 482.392 572.747 482.04C572.779 481.688 572.819 481.36 572.867 481.056L572.843 480.984C572.635 481.272 572.387 481.552 572.099 481.824C571.811 482.096 571.491 482.344 571.139 482.568C570.803 482.776 570.435 482.944 570.035 483.072C569.651 483.2 569.243 483.264 568.811 483.264C568.315 483.264 567.875 483.176 567.491 483C567.107 482.824 566.787 482.592 566.531 482.304C566.275 482.016 566.083 481.68 565.955 481.296C565.827 480.912 565.763 480.512 565.763 480.096C565.763 479.504 565.899 478.992 566.171 478.56C566.443 478.112 566.803 477.744 567.251 477.456C567.667 477.2 568.155 476.992 568.715 476.832C569.291 476.672 569.843 476.56 570.371 476.496C570.915 476.416 571.403 476.368 571.835 476.352C572.267 476.32 572.555 476.304 572.699 476.304H573.035C573.019 475.712 572.987 475.248 572.939 474.912C572.891 474.56 572.827 474.272 572.747 474.048C572.571 473.568 572.267 473.224 571.835 473.016C571.403 472.792 570.883 472.68 570.275 472.68C570.019 472.68 569.739 472.704 569.435 472.752C569.147 472.8 568.867 472.888 568.595 473.016C568.339 473.144 568.115 473.328 567.923 473.568C567.731 473.792 567.619 474.088 567.587 474.456L567.491 474.528H566.963L566.747 472.752L566.819 472.608C566.899 472.512 567.067 472.408 567.323 472.296C567.579 472.184 567.875 472.08 568.211 471.984C568.563 471.872 568.947 471.784 569.363 471.72C569.795 471.64 570.219 471.6 570.635 471.6C571.211 471.6 571.747 471.68 572.243 471.84C572.739 471.984 573.163 472.208 573.515 472.512C573.883 472.816 574.171 473.2 574.379 473.664C574.587 474.112 574.691 474.64 574.691 475.248C574.691 475.92 574.683 476.52 574.667 477.048C574.667 477.56 574.659 478.04 574.643 478.488C574.627 478.92 574.611 479.352 574.595 479.784C574.595 480.2 574.595 480.648 574.595 481.128C574.627 481.496 574.667 481.768 574.715 481.944C574.763 482.104 574.843 482.224 574.955 482.304C575.083 482.432 575.267 482.512 575.507 482.544C575.763 482.56 576.019 482.568 576.275 482.568L576.371 482.664L576.395 483L576.371 483.096C576.083 483.064 575.771 483.04 575.435 483.024C575.099 483.008 574.771 483 574.451 483C573.843 483 573.291 483.024 572.795 483.072L572.651 482.832ZM572.651 480.24C572.699 480.16 572.747 480.064 572.795 479.952C572.859 479.84 572.899 479.704 572.915 479.544L573.035 477.144H572.819C572.179 477.144 571.539 477.184 570.899 477.264C570.259 477.328 569.683 477.464 569.171 477.672C568.675 477.88 568.267 478.168 567.947 478.536C567.627 478.904 567.467 479.376 567.467 479.952C567.467 480.56 567.643 481.048 567.995 481.416C568.347 481.768 568.803 481.944 569.363 481.944C569.699 481.944 570.035 481.888 570.371 481.776C570.707 481.664 571.019 481.52 571.307 481.344C571.611 481.168 571.875 480.984 572.099 480.792C572.339 480.6 572.523 480.416 572.651 480.24ZM583.885 473.088H580.765C580.765 474.128 580.757 475.088 580.741 475.968C580.741 476.848 580.741 477.624 580.741 478.296C580.741 478.952 580.733 479.48 580.717 479.88C580.717 480.28 580.717 480.528 580.717 480.624C580.717 481.248 580.837 481.664 581.077 481.872C581.317 482.08 581.597 482.184 581.917 482.184C582.189 482.184 582.501 482.136 582.853 482.04C583.221 481.928 583.517 481.808 583.741 481.68L583.957 481.848L583.741 482.52C583.373 482.776 582.957 482.96 582.493 483.072C582.045 483.2 581.645 483.264 581.293 483.264C580.477 483.264 579.901 483.04 579.565 482.592C579.229 482.144 579.061 481.568 579.061 480.864C579.061 480.72 579.069 480.424 579.085 479.976C579.101 479.528 579.117 478.968 579.133 478.296C579.149 477.624 579.165 476.848 579.181 475.968C579.197 475.088 579.205 474.128 579.205 473.088H577.477L577.381 472.968V472.512L577.477 472.416L579.205 472.08C579.205 471.52 579.189 470.952 579.157 470.376C579.141 469.784 579.117 469.208 579.085 468.648L579.253 468.504L579.589 468.48C579.717 468.464 579.925 468.432 580.213 468.384C580.501 468.336 580.701 468.28 580.813 468.216L581.029 468.312C580.981 468.536 580.941 468.8 580.909 469.104C580.877 469.392 580.845 469.704 580.813 470.04C580.797 470.376 580.781 470.72 580.765 471.072C580.765 471.424 580.765 471.76 580.765 472.08L583.885 471.936L584.005 472.032V472.968L583.885 473.088ZM596.129 476.544L595.745 476.712C594.881 476.712 593.993 476.72 593.081 476.736C592.169 476.752 591.273 476.76 590.393 476.76H587.561C587.545 476.872 587.537 476.984 587.537 477.096C587.537 477.192 587.537 477.288 587.537 477.384C587.537 477.992 587.625 478.576 587.801 479.136C587.977 479.68 588.249 480.16 588.617 480.576C589.001 480.992 589.489 481.328 590.081 481.584C590.673 481.824 591.393 481.944 592.241 481.944C592.737 481.944 593.265 481.896 593.825 481.8C594.401 481.688 594.929 481.496 595.409 481.224L595.649 481.368V481.8L595.409 482.064C595.025 482.368 594.481 482.648 593.777 482.904C593.073 483.144 592.289 483.264 591.425 483.264C590.577 483.264 589.801 483.128 589.097 482.856C588.409 482.568 587.809 482.168 587.297 481.656C586.801 481.144 586.409 480.536 586.121 479.832C585.849 479.128 585.713 478.344 585.713 477.48C585.713 476.6 585.857 475.8 586.145 475.08C586.433 474.36 586.825 473.744 587.321 473.232C587.833 472.72 588.425 472.32 589.097 472.032C589.785 471.744 590.521 471.6 591.305 471.6C591.721 471.6 592.185 471.656 592.697 471.768C593.225 471.88 593.729 472.096 594.209 472.416C594.689 472.72 595.121 473.16 595.505 473.736C595.889 474.296 596.153 475.04 596.297 475.968L596.129 476.544ZM591.329 472.68C590.817 472.68 590.353 472.768 589.937 472.944C589.537 473.104 589.177 473.328 588.857 473.616C588.553 473.888 588.297 474.216 588.089 474.6C587.897 474.968 587.761 475.36 587.681 475.776H588.617C589.481 475.776 590.321 475.768 591.137 475.752C591.953 475.72 592.809 475.68 593.705 475.632C593.913 475.616 594.049 475.56 594.113 475.464C594.193 475.368 594.233 475.256 594.233 475.128C594.233 475.032 594.225 474.944 594.209 474.864C594.193 474.784 594.169 474.704 594.137 474.624C593.961 474.016 593.633 473.544 593.153 473.208C592.673 472.856 592.065 472.68 591.329 472.68ZM607.299 482.832C607.347 482.656 607.387 482.392 607.419 482.04C607.467 481.688 607.507 481.376 607.539 481.104L607.515 481.008C607.067 481.68 606.515 482.224 605.859 482.64C605.203 483.056 604.451 483.264 603.603 483.264C602.691 483.264 601.899 483.104 601.227 482.784C600.571 482.464 600.027 482.04 599.595 481.512C599.179 480.984 598.867 480.384 598.659 479.712C598.451 479.024 598.347 478.312 598.347 477.576C598.347 476.488 598.515 475.568 598.851 474.816C599.187 474.048 599.611 473.432 600.123 472.968C600.635 472.488 601.195 472.144 601.803 471.936C602.427 471.712 603.019 471.6 603.579 471.6C604.347 471.6 605.083 471.776 605.787 472.128C606.491 472.464 607.091 473.04 607.587 473.856L607.635 473.76C607.603 473.392 607.587 473.04 607.587 472.704C607.587 472.352 607.587 471.992 607.587 471.624C607.587 470.968 607.587 470.416 607.587 469.968C607.587 469.504 607.579 469.104 607.563 468.768C607.563 468.432 607.555 468.136 607.539 467.88C607.539 467.624 607.531 467.368 607.515 467.112C607.499 466.936 607.451 466.784 607.371 466.656C607.307 466.528 607.251 466.432 607.203 466.368C607.043 466.192 606.843 466.08 606.603 466.032C606.363 465.984 606.115 465.96 605.859 465.96L605.763 465.864V465.552L605.859 465.456H606.291C606.563 465.456 606.907 465.456 607.323 465.456C607.739 465.44 608.099 465.408 608.403 465.36L609.243 465.24L609.387 465.456C609.355 465.52 609.323 465.64 609.291 465.816C609.275 465.976 609.259 466.152 609.243 466.344C609.243 466.536 609.235 466.72 609.219 466.896C609.219 467.072 609.219 467.208 609.219 467.304C609.219 467.56 609.211 467.8 609.195 468.024C609.195 468.248 609.195 468.512 609.195 468.816C609.195 469.12 609.187 469.488 609.171 469.92C609.171 470.352 609.171 470.904 609.171 471.576V476.808C609.171 477.48 609.171 478.032 609.171 478.464C609.187 478.896 609.195 479.264 609.195 479.568C609.211 479.872 609.219 480.136 609.219 480.36C609.235 480.584 609.251 480.84 609.267 481.128C609.299 481.496 609.339 481.768 609.387 481.944C609.435 482.104 609.507 482.224 609.603 482.304C609.747 482.432 609.939 482.512 610.179 482.544C610.419 482.56 610.667 482.568 610.923 482.568L611.019 482.664L611.067 483L611.019 483.096C610.731 483.064 610.419 483.04 610.083 483.024C609.763 483.008 609.435 483 609.099 483C608.507 483 607.963 483.024 607.467 483.072L607.299 482.832ZM600.171 477.528C600.171 478.072 600.243 478.608 600.387 479.136C600.531 479.664 600.747 480.136 601.035 480.552C601.323 480.952 601.691 481.28 602.139 481.536C602.587 481.776 603.123 481.896 603.747 481.896C604.339 481.896 604.867 481.784 605.331 481.56C605.811 481.336 606.211 481.064 606.531 480.744C606.851 480.424 607.099 480.088 607.275 479.736C607.467 479.384 607.571 479.08 607.587 478.824V476.16C607.555 475.904 607.451 475.592 607.275 475.224C607.115 474.856 606.875 474.504 606.555 474.168C606.251 473.816 605.867 473.52 605.403 473.28C604.955 473.04 604.419 472.92 603.795 472.92C603.155 472.92 602.603 473.056 602.139 473.328C601.691 473.584 601.315 473.928 601.011 474.36C600.723 474.792 600.507 475.288 600.363 475.848C600.235 476.392 600.171 476.952 600.171 477.528ZM386.048 510.096C385.936 510.096 385.768 510.088 385.544 510.072C385.32 510.056 385.08 510.04 384.824 510.024C384.568 510.024 384.328 510.016 384.104 510C383.88 510 383.712 510 383.6 510H383.264C383.152 510 382.976 510 382.736 510C382.512 510.016 382.272 510.024 382.016 510.024C381.776 510.04 381.536 510.056 381.296 510.072C381.072 510.088 380.904 510.096 380.792 510.096L380.768 510L380.792 509.664L380.888 509.568C381.144 509.568 381.392 509.56 381.632 509.544C381.888 509.512 382.08 509.432 382.208 509.304C382.336 509.192 382.416 509.048 382.448 508.872C382.496 508.696 382.536 508.448 382.568 508.128C382.584 507.872 382.6 507.616 382.616 507.36C382.632 507.088 382.64 506.664 382.64 506.088V503.136C382.64 502.8 382.64 502.52 382.64 502.296C382.64 502.056 382.632 501.848 382.616 501.672C382.616 501.496 382.608 501.336 382.592 501.192C382.592 501.048 382.584 500.896 382.568 500.736C382.536 500.56 382.488 500.408 382.424 500.28C382.36 500.136 382.304 500.04 382.256 499.992C382.096 499.8 381.896 499.688 381.656 499.656C381.416 499.608 381.168 499.584 380.912 499.584L380.816 499.488V499.152L380.912 499.08H381.344C381.616 499.08 381.96 499.08 382.376 499.08C382.792 499.064 383.152 499.032 383.456 498.984L384.296 498.864L384.44 499.08C384.408 499.144 384.376 499.256 384.344 499.416C384.328 499.576 384.312 499.752 384.296 499.944C384.296 500.12 384.288 500.296 384.272 500.472C384.272 500.648 384.272 500.784 384.272 500.88C384.272 501.008 384.264 501.136 384.248 501.264C384.248 501.376 384.248 501.512 384.248 501.672C384.248 501.832 384.24 502.024 384.224 502.248C384.224 502.472 384.224 502.76 384.224 503.112V505.8C384.224 506.152 384.224 506.44 384.224 506.664C384.24 506.888 384.248 507.08 384.248 507.24C384.264 507.4 384.272 507.552 384.272 507.696C384.288 507.824 384.304 507.968 384.32 508.128C384.352 508.464 384.384 508.72 384.416 508.896C384.464 509.056 384.552 509.192 384.68 509.304C384.808 509.416 384.984 509.488 385.208 509.52C385.448 509.552 385.688 509.568 385.928 509.568L386.048 509.688L386.096 510L386.048 510.096ZM382.016 494.856C382.016 494.536 382.12 494.264 382.328 494.04C382.552 493.8 382.824 493.68 383.144 493.68C383.464 493.68 383.736 493.8 383.96 494.04C384.2 494.264 384.32 494.536 384.32 494.856C384.32 495.176 384.2 495.448 383.96 495.672C383.736 495.88 383.464 495.984 383.144 495.984C382.824 495.984 382.552 495.88 382.328 495.672C382.12 495.448 382.016 495.176 382.016 494.856ZM390.905 501.024C391.321 500.336 391.857 499.76 392.513 499.296C393.169 498.832 393.985 498.6 394.961 498.6C395.409 498.6 395.857 498.664 396.305 498.792C396.753 498.92 397.161 499.12 397.529 499.392C397.913 499.664 398.225 500.016 398.465 500.448C398.721 500.864 398.889 501.36 398.969 501.936C399.017 502.352 399.041 502.792 399.041 503.256C399.057 503.72 399.065 504.184 399.065 504.648C399.065 505.224 399.065 505.808 399.065 506.4C399.081 506.976 399.089 507.552 399.089 508.128C399.121 508.496 399.161 508.768 399.209 508.944C399.257 509.104 399.329 509.224 399.425 509.304C399.569 509.432 399.761 509.512 400.001 509.544C400.257 509.56 400.513 509.568 400.769 509.568L400.841 509.664L400.889 510L400.841 510.096C400.569 510.064 400.265 510.04 399.929 510.024C399.593 510.008 399.265 510 398.945 510C398.337 510 397.785 510.024 397.289 510.072L397.121 509.832C397.185 509.624 397.233 509.352 397.265 509.016C397.297 508.68 397.321 508.384 397.337 508.128C397.369 507.456 397.393 506.8 397.409 506.16C397.425 505.504 397.433 504.96 397.433 504.528C397.433 504.16 397.417 503.76 397.385 503.328C397.369 502.896 397.321 502.52 397.241 502.2C397.081 501.448 396.753 500.888 396.257 500.52C395.761 500.152 395.185 499.968 394.529 499.968C394.001 499.968 393.505 500.08 393.041 500.304C392.593 500.528 392.209 500.808 391.889 501.144C391.569 501.464 391.313 501.808 391.121 502.176C390.945 502.528 390.857 502.832 390.857 503.088V505.8C390.857 506.152 390.857 506.44 390.857 506.664C390.857 506.888 390.857 507.08 390.857 507.24C390.873 507.4 390.889 507.552 390.905 507.696C390.921 507.824 390.937 507.968 390.953 508.128C390.985 508.464 391.017 508.72 391.049 508.896C391.097 509.056 391.185 509.192 391.313 509.304C391.441 509.416 391.617 509.488 391.841 509.52C392.081 509.552 392.321 509.568 392.561 509.568L392.681 509.688L392.729 510L392.681 510.096C392.569 510.096 392.401 510.088 392.177 510.072C391.953 510.056 391.713 510.04 391.457 510.024C391.201 510.024 390.961 510.016 390.737 510C390.513 510 390.345 510 390.233 510H389.897C389.785 510 389.609 510 389.369 510C389.145 510.016 388.905 510.024 388.649 510.024C388.409 510.04 388.169 510.056 387.929 510.072C387.705 510.088 387.537 510.096 387.425 510.096L387.401 510L387.425 509.664L387.521 509.568C387.777 509.568 388.025 509.56 388.265 509.544C388.521 509.512 388.713 509.432 388.841 509.304C388.969 509.192 389.049 509.048 389.081 508.872C389.129 508.696 389.169 508.448 389.201 508.128C389.217 507.872 389.233 507.616 389.249 507.36C389.265 507.088 389.273 506.664 389.273 506.088V503.136C389.273 502.8 389.273 502.52 389.273 502.296C389.273 502.056 389.265 501.848 389.249 501.672C389.249 501.496 389.241 501.336 389.225 501.192C389.225 501.048 389.217 500.896 389.201 500.736C389.169 500.56 389.121 500.408 389.057 500.28C388.993 500.136 388.937 500.04 388.889 499.992C388.729 499.8 388.529 499.688 388.289 499.656C388.049 499.608 387.801 499.584 387.545 499.584L387.449 499.488V499.152L387.545 499.08H387.977C388.249 499.08 388.593 499.08 389.009 499.08C389.425 499.064 389.785 499.032 390.089 498.984L390.929 498.864L391.073 499.08C390.993 499.288 390.937 499.576 390.905 499.944C390.873 500.296 390.849 500.64 390.833 500.976L390.905 501.024ZM414.127 500.088H411.007C411.007 501.128 410.999 502.088 410.983 502.968C410.983 503.848 410.983 504.624 410.983 505.296C410.983 505.952 410.975 506.48 410.959 506.88C410.959 507.28 410.959 507.528 410.959 507.624C410.959 508.248 411.079 508.664 411.319 508.872C411.559 509.08 411.839 509.184 412.159 509.184C412.431 509.184 412.743 509.136 413.095 509.04C413.463 508.928 413.759 508.808 413.983 508.68L414.199 508.848L413.983 509.52C413.615 509.776 413.199 509.96 412.735 510.072C412.287 510.2 411.887 510.264 411.535 510.264C410.719 510.264 410.143 510.04 409.807 509.592C409.471 509.144 409.303 508.568 409.303 507.864C409.303 507.72 409.311 507.424 409.327 506.976C409.343 506.528 409.359 505.968 409.375 505.296C409.391 504.624 409.407 503.848 409.423 502.968C409.439 502.088 409.447 501.128 409.447 500.088H407.719L407.623 499.968V499.512L407.719 499.416L409.447 499.08C409.447 498.52 409.431 497.952 409.399 497.376C409.383 496.784 409.359 496.208 409.327 495.648L409.495 495.504L409.831 495.48C409.959 495.464 410.167 495.432 410.455 495.384C410.743 495.336 410.943 495.28 411.055 495.216L411.271 495.312C411.223 495.536 411.183 495.8 411.151 496.104C411.119 496.392 411.087 496.704 411.055 497.04C411.039 497.376 411.023 497.72 411.007 498.072C411.007 498.424 411.007 498.76 411.007 499.08L414.127 498.936L414.247 499.032V499.968L414.127 500.088ZM425.052 509.832C425.116 509.624 425.164 509.352 425.196 509.016C425.228 508.68 425.252 508.384 425.268 508.128C425.3 507.456 425.324 506.8 425.34 506.16C425.356 505.504 425.364 504.96 425.364 504.528C425.364 504.16 425.348 503.76 425.316 503.328C425.3 502.896 425.252 502.52 425.172 502.2C425.012 501.448 424.684 500.888 424.188 500.52C423.692 500.152 423.116 499.968 422.46 499.968C421.932 499.968 421.436 500.088 420.972 500.328C420.524 500.552 420.14 500.832 419.82 501.168C419.5 501.488 419.244 501.832 419.052 502.2C418.876 502.552 418.788 502.848 418.788 503.088C418.788 503.952 418.788 504.648 418.788 505.176C418.788 505.688 418.788 506.12 418.788 506.472C418.804 506.824 418.812 507.12 418.812 507.36C418.828 507.584 418.852 507.84 418.884 508.128C418.916 508.464 418.948 508.72 418.98 508.896C419.028 509.056 419.116 509.192 419.244 509.304C419.372 509.416 419.548 509.488 419.772 509.52C420.012 509.552 420.252 509.568 420.492 509.568L420.612 509.688L420.66 510L420.612 510.096C420.5 510.096 420.332 510.088 420.108 510.072C419.884 510.056 419.644 510.04 419.388 510.024C419.132 510.024 418.892 510.016 418.668 510C418.444 510 418.276 510 418.164 510H417.828C417.716 510 417.54 510 417.3 510C417.076 510.016 416.836 510.024 416.58 510.024C416.34 510.04 416.1 510.056 415.86 510.072C415.636 510.088 415.468 510.096 415.356 510.096L415.332 510L415.356 509.664L415.452 509.568C415.708 509.568 415.956 509.56 416.196 509.544C416.452 509.512 416.644 509.432 416.772 509.304C416.9 509.192 416.98 509.048 417.012 508.872C417.06 508.696 417.1 508.448 417.132 508.128C417.148 507.92 417.156 507.712 417.156 507.504C417.172 507.296 417.18 507.056 417.18 506.784C417.196 506.496 417.204 506.168 417.204 505.8C417.204 505.416 417.204 504.944 417.204 504.384V498.624C417.204 497.968 417.204 497.416 417.204 496.968C417.204 496.504 417.196 496.104 417.18 495.768C417.18 495.432 417.172 495.136 417.156 494.88C417.156 494.624 417.148 494.368 417.132 494.112C417.116 493.936 417.068 493.784 416.988 493.656C416.924 493.528 416.868 493.432 416.82 493.368C416.66 493.192 416.46 493.08 416.22 493.032C415.98 492.984 415.732 492.96 415.476 492.96L415.38 492.864V492.552L415.476 492.456H415.908C416.18 492.456 416.524 492.456 416.94 492.456C417.356 492.44 417.716 492.408 418.02 492.36L418.86 492.24L419.004 492.456C418.972 492.52 418.948 492.64 418.932 492.816C418.916 492.976 418.9 493.152 418.884 493.344C418.868 493.536 418.86 493.72 418.86 493.896C418.86 494.072 418.86 494.208 418.86 494.304C418.86 494.816 418.844 495.432 418.812 496.152C418.796 496.856 418.788 497.664 418.788 498.576C418.788 499.248 418.78 499.776 418.764 500.16C418.764 500.544 418.748 500.848 418.716 501.072L418.788 501.12C419.188 500.416 419.724 499.824 420.396 499.344C421.068 498.848 421.9 498.6 422.892 498.6C423.34 498.6 423.788 498.664 424.236 498.792C424.7 498.92 425.116 499.12 425.484 499.392C425.852 499.664 426.164 500.008 426.42 500.424C426.676 500.84 426.836 501.336 426.9 501.912C426.948 502.328 426.972 502.808 426.972 503.352C426.988 503.88 426.996 504.312 426.996 504.648V508.032C426.996 508.4 427.028 508.688 427.092 508.896C427.172 509.088 427.26 509.224 427.356 509.304C427.5 509.432 427.692 509.512 427.932 509.544C428.188 509.56 428.444 509.568 428.7 509.568L428.772 509.664L428.82 510L428.772 510.096C428.5 510.064 428.196 510.04 427.86 510.024C427.524 510.008 427.196 510 426.876 510C426.268 510 425.716 510.024 425.22 510.072L425.052 509.832ZM440.692 503.544L440.308 503.712C439.444 503.712 438.556 503.72 437.644 503.736C436.732 503.752 435.836 503.76 434.956 503.76H432.124C432.108 503.872 432.1 503.984 432.1 504.096C432.1 504.192 432.1 504.288 432.1 504.384C432.1 504.992 432.188 505.576 432.364 506.136C432.54 506.68 432.812 507.16 433.18 507.576C433.564 507.992 434.052 508.328 434.644 508.584C435.236 508.824 435.956 508.944 436.804 508.944C437.3 508.944 437.828 508.896 438.388 508.8C438.964 508.688 439.492 508.496 439.972 508.224L440.212 508.368V508.8L439.972 509.064C439.588 509.368 439.044 509.648 438.34 509.904C437.636 510.144 436.852 510.264 435.988 510.264C435.14 510.264 434.364 510.128 433.66 509.856C432.972 509.568 432.372 509.168 431.86 508.656C431.364 508.144 430.972 507.536 430.684 506.832C430.412 506.128 430.276 505.344 430.276 504.48C430.276 503.6 430.42 502.8 430.708 502.08C430.996 501.36 431.388 500.744 431.884 500.232C432.396 499.72 432.988 499.32 433.66 499.032C434.348 498.744 435.084 498.6 435.868 498.6C436.284 498.6 436.748 498.656 437.26 498.768C437.788 498.88 438.292 499.096 438.772 499.416C439.252 499.72 439.684 500.16 440.068 500.736C440.452 501.296 440.716 502.04 440.86 502.968L440.692 503.544ZM435.892 499.68C435.38 499.68 434.916 499.768 434.5 499.944C434.1 500.104 433.74 500.328 433.42 500.616C433.116 500.888 432.86 501.216 432.652 501.6C432.46 501.968 432.324 502.36 432.244 502.776H433.18C434.044 502.776 434.884 502.768 435.7 502.752C436.516 502.72 437.372 502.68 438.268 502.632C438.476 502.616 438.612 502.56 438.676 502.464C438.756 502.368 438.796 502.256 438.796 502.128C438.796 502.032 438.788 501.944 438.772 501.864C438.756 501.784 438.732 501.704 438.7 501.624C438.524 501.016 438.196 500.544 437.716 500.208C437.236 499.856 436.628 499.68 435.892 499.68ZM457.747 509.832C457.811 509.624 457.859 509.352 457.891 509.016C457.923 508.68 457.947 508.384 457.963 508.128C457.995 507.456 458.019 506.8 458.035 506.16C458.051 505.504 458.059 504.96 458.059 504.528C458.059 504.16 458.043 503.76 458.011 503.328C457.995 502.896 457.947 502.52 457.867 502.2C457.707 501.448 457.379 500.888 456.883 500.52C456.387 500.152 455.811 499.968 455.155 499.968C454.627 499.968 454.131 500.088 453.667 500.328C453.219 500.552 452.835 500.832 452.515 501.168C452.195 501.488 451.939 501.832 451.747 502.2C451.571 502.552 451.483 502.848 451.483 503.088C451.483 503.952 451.483 504.648 451.483 505.176C451.483 505.688 451.483 506.12 451.483 506.472C451.499 506.824 451.507 507.12 451.507 507.36C451.523 507.584 451.547 507.84 451.579 508.128C451.611 508.464 451.643 508.72 451.675 508.896C451.723 509.056 451.811 509.192 451.939 509.304C452.067 509.416 452.243 509.488 452.467 509.52C452.707 509.552 452.947 509.568 453.187 509.568L453.307 509.688L453.355 510L453.307 510.096C453.195 510.096 453.027 510.088 452.803 510.072C452.579 510.056 452.339 510.04 452.083 510.024C451.827 510.024 451.587 510.016 451.363 510C451.139 510 450.971 510 450.859 510H450.523C450.411 510 450.235 510 449.995 510C449.771 510.016 449.531 510.024 449.275 510.024C449.035 510.04 448.795 510.056 448.555 510.072C448.331 510.088 448.163 510.096 448.051 510.096L448.027 510L448.051 509.664L448.147 509.568C448.403 509.568 448.651 509.56 448.891 509.544C449.147 509.512 449.339 509.432 449.467 509.304C449.595 509.192 449.675 509.048 449.707 508.872C449.755 508.696 449.795 508.448 449.827 508.128C449.843 507.92 449.851 507.712 449.851 507.504C449.867 507.296 449.875 507.056 449.875 506.784C449.891 506.496 449.899 506.168 449.899 505.8C449.899 505.416 449.899 504.944 449.899 504.384V498.624C449.899 497.968 449.899 497.416 449.899 496.968C449.899 496.504 449.891 496.104 449.875 495.768C449.875 495.432 449.867 495.136 449.851 494.88C449.851 494.624 449.843 494.368 449.827 494.112C449.811 493.936 449.763 493.784 449.683 493.656C449.619 493.528 449.563 493.432 449.515 493.368C449.355 493.192 449.155 493.08 448.915 493.032C448.675 492.984 448.427 492.96 448.171 492.96L448.075 492.864V492.552L448.171 492.456H448.603C448.875 492.456 449.219 492.456 449.635 492.456C450.051 492.44 450.411 492.408 450.715 492.36L451.555 492.24L451.699 492.456C451.667 492.52 451.643 492.64 451.627 492.816C451.611 492.976 451.595 493.152 451.579 493.344C451.563 493.536 451.555 493.72 451.555 493.896C451.555 494.072 451.555 494.208 451.555 494.304C451.555 494.816 451.539 495.432 451.507 496.152C451.491 496.856 451.483 497.664 451.483 498.576C451.483 499.248 451.475 499.776 451.459 500.16C451.459 500.544 451.443 500.848 451.411 501.072L451.483 501.12C451.883 500.416 452.419 499.824 453.091 499.344C453.763 498.848 454.595 498.6 455.587 498.6C456.035 498.6 456.483 498.664 456.931 498.792C457.395 498.92 457.811 499.12 458.179 499.392C458.547 499.664 458.859 500.008 459.115 500.424C459.371 500.84 459.531 501.336 459.595 501.912C459.643 502.328 459.667 502.808 459.667 503.352C459.683 503.88 459.691 504.312 459.691 504.648V508.032C459.691 508.4 459.723 508.688 459.787 508.896C459.867 509.088 459.955 509.224 460.051 509.304C460.195 509.432 460.387 509.512 460.627 509.544C460.883 509.56 461.139 509.568 461.395 509.568L461.467 509.664L461.515 510L461.467 510.096C461.195 510.064 460.891 510.04 460.555 510.024C460.219 510.008 459.891 510 459.571 510C458.963 510 458.411 510.024 457.915 510.072L457.747 509.832ZM473.387 503.544L473.003 503.712C472.139 503.712 471.251 503.72 470.339 503.736C469.427 503.752 468.531 503.76 467.651 503.76H464.819C464.803 503.872 464.795 503.984 464.795 504.096C464.795 504.192 464.795 504.288 464.795 504.384C464.795 504.992 464.883 505.576 465.059 506.136C465.235 506.68 465.507 507.16 465.875 507.576C466.259 507.992 466.747 508.328 467.339 508.584C467.931 508.824 468.651 508.944 469.499 508.944C469.995 508.944 470.523 508.896 471.083 508.8C471.659 508.688 472.187 508.496 472.667 508.224L472.907 508.368V508.8L472.667 509.064C472.283 509.368 471.739 509.648 471.035 509.904C470.331 510.144 469.547 510.264 468.683 510.264C467.835 510.264 467.059 510.128 466.355 509.856C465.667 509.568 465.067 509.168 464.555 508.656C464.059 508.144 463.667 507.536 463.379 506.832C463.107 506.128 462.971 505.344 462.971 504.48C462.971 503.6 463.115 502.8 463.403 502.08C463.691 501.36 464.083 500.744 464.579 500.232C465.091 499.72 465.683 499.32 466.355 499.032C467.043 498.744 467.779 498.6 468.563 498.6C468.979 498.6 469.443 498.656 469.955 498.768C470.483 498.88 470.987 499.096 471.467 499.416C471.947 499.72 472.379 500.16 472.763 500.736C473.147 501.296 473.411 502.04 473.555 502.968L473.387 503.544ZM468.587 499.68C468.075 499.68 467.611 499.768 467.195 499.944C466.795 500.104 466.435 500.328 466.115 500.616C465.811 500.888 465.555 501.216 465.347 501.6C465.155 501.968 465.019 502.36 464.939 502.776H465.875C466.739 502.776 467.579 502.768 468.395 502.752C469.211 502.72 470.067 502.68 470.963 502.632C471.171 502.616 471.307 502.56 471.371 502.464C471.451 502.368 471.491 502.256 471.491 502.128C471.491 502.032 471.483 501.944 471.467 501.864C471.451 501.784 471.427 501.704 471.395 501.624C471.219 501.016 470.891 500.544 470.411 500.208C469.931 499.856 469.323 499.68 468.587 499.68ZM482.253 509.832C482.301 509.656 482.333 509.392 482.349 509.04C482.381 508.688 482.421 508.36 482.469 508.056L482.445 507.984C482.237 508.272 481.989 508.552 481.701 508.824C481.413 509.096 481.093 509.344 480.741 509.568C480.405 509.776 480.037 509.944 479.637 510.072C479.253 510.2 478.845 510.264 478.413 510.264C477.917 510.264 477.477 510.176 477.093 510C476.709 509.824 476.389 509.592 476.133 509.304C475.877 509.016 475.685 508.68 475.557 508.296C475.429 507.912 475.365 507.512 475.365 507.096C475.365 506.504 475.501 505.992 475.773 505.56C476.045 505.112 476.405 504.744 476.853 504.456C477.269 504.2 477.757 503.992 478.317 503.832C478.893 503.672 479.445 503.56 479.973 503.496C480.517 503.416 481.005 503.368 481.437 503.352C481.869 503.32 482.157 503.304 482.301 503.304H482.637C482.621 502.712 482.589 502.248 482.541 501.912C482.493 501.56 482.429 501.272 482.349 501.048C482.173 500.568 481.869 500.224 481.437 500.016C481.005 499.792 480.485 499.68 479.877 499.68C479.621 499.68 479.341 499.704 479.037 499.752C478.749 499.8 478.469 499.888 478.197 500.016C477.941 500.144 477.717 500.328 477.525 500.568C477.333 500.792 477.221 501.088 477.189 501.456L477.093 501.528H476.565L476.349 499.752L476.421 499.608C476.501 499.512 476.669 499.408 476.925 499.296C477.181 499.184 477.477 499.08 477.813 498.984C478.165 498.872 478.549 498.784 478.965 498.72C479.397 498.64 479.821 498.6 480.237 498.6C480.813 498.6 481.349 498.68 481.845 498.84C482.341 498.984 482.765 499.208 483.117 499.512C483.485 499.816 483.773 500.2 483.981 500.664C484.189 501.112 484.293 501.64 484.293 502.248C484.293 502.92 484.285 503.52 484.269 504.048C484.269 504.56 484.261 505.04 484.245 505.488C484.229 505.92 484.213 506.352 484.197 506.784C484.197 507.2 484.197 507.648 484.197 508.128C484.229 508.496 484.269 508.768 484.317 508.944C484.365 509.104 484.445 509.224 484.557 509.304C484.685 509.432 484.869 509.512 485.109 509.544C485.365 509.56 485.621 509.568 485.877 509.568L485.973 509.664L485.997 510L485.973 510.096C485.685 510.064 485.373 510.04 485.037 510.024C484.701 510.008 484.373 510 484.053 510C483.445 510 482.893 510.024 482.397 510.072L482.253 509.832ZM482.253 507.24C482.301 507.16 482.349 507.064 482.397 506.952C482.461 506.84 482.501 506.704 482.517 506.544L482.637 504.144H482.421C481.781 504.144 481.141 504.184 480.501 504.264C479.861 504.328 479.285 504.464 478.773 504.672C478.277 504.88 477.869 505.168 477.549 505.536C477.229 505.904 477.069 506.376 477.069 506.952C477.069 507.56 477.245 508.048 477.597 508.416C477.949 508.768 478.405 508.944 478.965 508.944C479.301 508.944 479.637 508.888 479.973 508.776C480.309 508.664 480.621 508.52 480.909 508.344C481.213 508.168 481.477 507.984 481.701 507.792C481.941 507.6 482.125 507.416 482.253 507.24ZM490.631 501.504C490.791 501.2 490.967 500.88 491.159 500.544C491.367 500.208 491.599 499.896 491.855 499.608C492.111 499.32 492.399 499.08 492.719 498.888C493.055 498.696 493.431 498.6 493.847 498.6C494.135 498.6 494.455 498.648 494.807 498.744C495.175 498.824 495.423 498.936 495.551 499.08L495.743 499.296L495.455 501.144H494.663C494.615 500.92 494.487 500.72 494.279 500.544C494.087 500.352 493.783 500.256 493.367 500.256C492.967 500.256 492.599 500.376 492.263 500.616C491.927 500.84 491.631 501.128 491.375 501.48C491.135 501.832 490.943 502.208 490.799 502.608C490.671 502.992 490.607 503.344 490.607 503.664V505.8C490.607 506.152 490.607 506.44 490.607 506.664C490.623 506.872 490.631 507.056 490.631 507.216C490.647 507.36 490.655 507.488 490.655 507.6C490.671 507.696 490.679 507.8 490.679 507.912L490.703 508.128C490.735 508.368 490.767 508.6 490.799 508.824C490.847 509.032 490.935 509.192 491.063 509.304C491.143 509.368 491.255 509.416 491.399 509.448C491.559 509.48 491.719 509.504 491.879 509.52C492.055 509.536 492.223 509.552 492.383 509.568C492.543 509.568 492.671 509.568 492.767 509.568L492.887 509.688L492.935 510L492.887 510.096C492.775 510.096 492.591 510.088 492.335 510.072C492.095 510.056 491.839 510.04 491.567 510.024C491.295 510.024 491.031 510.016 490.775 510C490.535 510 490.359 510 490.247 510H489.671C489.559 510 489.383 510 489.143 510C488.919 510.016 488.679 510.024 488.423 510.024C488.167 510.04 487.919 510.056 487.679 510.072C487.455 510.088 487.287 510.096 487.175 510.096L487.151 510L487.175 509.664L487.271 509.568C487.527 509.568 487.775 509.56 488.015 509.544C488.271 509.512 488.463 509.432 488.591 509.304C488.719 509.192 488.799 509.048 488.831 508.872C488.879 508.696 488.919 508.448 488.951 508.128L488.975 507.912C488.991 507.752 488.999 507.552 488.999 507.312C489.015 507.072 489.023 506.664 489.023 506.088V503.136C489.023 502.8 489.023 502.52 489.023 502.296C489.023 502.056 489.015 501.848 488.999 501.672C488.999 501.496 488.991 501.336 488.975 501.192C488.975 501.048 488.967 500.896 488.951 500.736C488.919 500.56 488.871 500.408 488.807 500.28C488.743 500.136 488.687 500.04 488.639 499.992C488.479 499.8 488.279 499.688 488.039 499.656C487.799 499.608 487.551 499.584 487.295 499.584L487.199 499.488V499.152L487.295 499.08H487.727C487.999 499.08 488.343 499.08 488.759 499.08C489.175 499.064 489.535 499.032 489.839 498.984L490.679 498.864L490.823 499.08C490.727 499.416 490.655 499.8 490.607 500.232C490.575 500.664 490.559 501.08 490.559 501.48L490.631 501.504ZM503.284 500.088H500.164C500.164 501.128 500.156 502.088 500.14 502.968C500.14 503.848 500.14 504.624 500.14 505.296C500.14 505.952 500.132 506.48 500.116 506.88C500.116 507.28 500.116 507.528 500.116 507.624C500.116 508.248 500.236 508.664 500.476 508.872C500.716 509.08 500.996 509.184 501.316 509.184C501.588 509.184 501.9 509.136 502.252 509.04C502.62 508.928 502.916 508.808 503.14 508.68L503.356 508.848L503.14 509.52C502.772 509.776 502.356 509.96 501.892 510.072C501.444 510.2 501.044 510.264 500.692 510.264C499.876 510.264 499.3 510.04 498.964 509.592C498.628 509.144 498.46 508.568 498.46 507.864C498.46 507.72 498.468 507.424 498.484 506.976C498.5 506.528 498.516 505.968 498.532 505.296C498.548 504.624 498.564 503.848 498.58 502.968C498.596 502.088 498.604 501.128 498.604 500.088H496.876L496.78 499.968V499.512L496.876 499.416L498.604 499.08C498.604 498.52 498.588 497.952 498.556 497.376C498.54 496.784 498.516 496.208 498.484 495.648L498.652 495.504L498.988 495.48C499.116 495.464 499.324 495.432 499.612 495.384C499.9 495.336 500.1 495.28 500.212 495.216L500.428 495.312C500.38 495.536 500.34 495.8 500.308 496.104C500.276 496.392 500.244 496.704 500.212 497.04C500.196 497.376 500.18 497.72 500.164 498.072C500.164 498.424 500.164 498.76 500.164 499.08L503.284 498.936L503.404 499.032V499.968L503.284 500.088ZM516.757 498.6C517.701 498.6 518.541 498.768 519.277 499.104C520.013 499.424 520.629 499.864 521.125 500.424C521.637 500.968 522.021 501.6 522.277 502.32C522.549 503.04 522.685 503.784 522.685 504.552C522.685 505.288 522.565 506 522.325 506.688C522.085 507.376 521.717 507.984 521.221 508.512C520.725 509.04 520.109 509.464 519.373 509.784C518.637 510.104 517.781 510.264 516.805 510.264C515.797 510.264 514.917 510.096 514.165 509.76C513.413 509.424 512.789 508.984 512.293 508.44C511.813 507.896 511.453 507.28 511.213 506.592C510.973 505.888 510.853 505.168 510.853 504.432C510.853 503.648 510.989 502.904 511.261 502.2C511.533 501.496 511.917 500.88 512.413 500.352C512.925 499.808 513.541 499.384 514.261 499.08C514.997 498.76 515.829 498.6 516.757 498.6ZM516.781 509.328C517.453 509.328 518.045 509.192 518.557 508.92C519.069 508.648 519.493 508.288 519.829 507.84C520.165 507.392 520.413 506.888 520.573 506.328C520.749 505.752 520.837 505.16 520.837 504.552C520.837 503.976 520.741 503.392 520.549 502.8C520.373 502.208 520.109 501.68 519.757 501.216C519.405 500.736 518.973 500.352 518.461 500.064C517.949 499.76 517.357 499.608 516.685 499.608C515.981 499.608 515.373 499.752 514.861 500.04C514.365 500.312 513.949 500.672 513.613 501.12C513.293 501.568 513.053 502.08 512.893 502.656C512.733 503.232 512.653 503.808 512.653 504.384C512.653 504.976 512.741 505.568 512.917 506.16C513.109 506.736 513.381 507.264 513.733 507.744C514.085 508.208 514.517 508.592 515.029 508.896C515.541 509.184 516.125 509.328 516.781 509.328ZM531.086 500.088H528.038V503.808C528.038 504.48 528.038 505.048 528.038 505.512C528.038 505.96 528.038 506.344 528.038 506.664C528.054 506.968 528.07 507.232 528.086 507.456C528.102 507.68 528.118 507.904 528.134 508.128C528.166 508.368 528.198 508.6 528.23 508.824C528.278 509.032 528.366 509.192 528.494 509.304C528.574 509.368 528.686 509.416 528.83 509.448C528.99 509.48 529.15 509.504 529.31 509.52C529.486 509.536 529.654 509.552 529.814 509.568C529.974 509.568 530.102 509.568 530.198 509.568L530.318 509.688L530.366 510L530.318 510.096C530.206 510.096 530.022 510.088 529.766 510.072C529.526 510.056 529.27 510.04 528.998 510.024C528.726 510.024 528.462 510.016 528.206 510C527.966 510 527.79 510 527.678 510H527.102C526.99 510 526.814 510 526.574 510C526.35 510.016 526.11 510.024 525.854 510.024C525.598 510.04 525.35 510.056 525.11 510.072C524.886 510.088 524.718 510.096 524.606 510.096L524.582 510L524.606 509.664L524.702 509.568C524.958 509.568 525.206 509.56 525.446 509.544C525.702 509.512 525.894 509.432 526.022 509.304C526.118 509.208 526.198 509.088 526.262 508.944C526.326 508.784 526.366 508.528 526.382 508.176C526.414 507.824 526.43 507.352 526.43 506.76C526.446 506.168 526.454 505.376 526.454 504.384V500.088H524.678L524.582 499.968V499.536L524.678 499.44L526.454 499.08V497.712C526.454 496 526.774 494.64 527.414 493.632C528.054 492.624 528.99 492.12 530.222 492.12C530.59 492.12 530.99 492.176 531.422 492.288C531.854 492.4 532.302 492.584 532.766 492.84L532.886 493.08L532.598 494.928H531.974C531.91 494.416 531.67 494.016 531.254 493.728C530.854 493.44 530.398 493.296 529.886 493.296C529.422 493.296 529.062 493.392 528.806 493.584C528.566 493.76 528.382 494 528.254 494.304C528.142 494.608 528.078 494.96 528.062 495.36C528.046 495.744 528.038 496.136 528.038 496.536V499.08L531.086 498.936L531.206 499.032V499.968L531.086 500.088ZM541.507 508.08C541.507 508.4 541.539 508.728 541.603 509.064C541.683 509.4 541.755 509.656 541.819 509.832L541.651 510H540.547C540.435 510 540.259 510 540.019 510C539.795 510.016 539.555 510.024 539.299 510.024C539.059 510.04 538.819 510.056 538.579 510.072C538.355 510.088 538.187 510.096 538.075 510.096L538.051 510L538.075 509.664L538.171 509.568C538.427 509.568 538.675 509.56 538.915 509.544C539.171 509.512 539.363 509.432 539.491 509.304C539.619 509.192 539.699 509.048 539.731 508.872C539.779 508.696 539.819 508.448 539.851 508.128L539.875 507.912C539.875 507.768 539.875 507.608 539.875 507.432C539.891 507.24 539.899 507.016 539.899 506.76C539.915 506.488 539.923 506.168 539.923 505.8C539.923 505.416 539.923 504.944 539.923 504.384V498.624C539.923 497.968 539.923 497.416 539.923 496.968C539.923 496.504 539.915 496.104 539.899 495.768C539.899 495.432 539.891 495.144 539.875 494.904C539.875 494.648 539.867 494.384 539.851 494.112C539.835 493.936 539.787 493.784 539.707 493.656C539.643 493.528 539.587 493.432 539.539 493.368C539.379 493.192 539.179 493.08 538.939 493.032C538.699 492.984 538.451 492.96 538.195 492.96L538.099 492.864V492.552L538.195 492.456H538.627C538.899 492.456 539.243 492.456 539.659 492.456C540.075 492.44 540.435 492.408 540.739 492.36L541.579 492.24L541.723 492.456C541.691 492.52 541.659 492.64 541.627 492.816C541.611 492.976 541.595 493.152 541.579 493.344C541.563 493.536 541.547 493.72 541.531 493.896C541.531 494.072 541.531 494.208 541.531 494.304C541.531 494.56 541.531 494.8 541.531 495.024C541.531 495.248 541.523 495.512 541.507 495.816C541.507 496.12 541.507 496.488 541.507 496.92C541.507 497.352 541.507 497.904 541.507 498.576C541.507 499.264 541.499 499.768 541.483 500.088C541.467 500.392 541.451 500.64 541.435 500.832L541.507 500.88C541.971 500.208 542.539 499.664 543.211 499.248C543.883 498.816 544.643 498.6 545.491 498.6C546.403 498.6 547.187 498.76 547.843 499.08C548.515 499.4 549.067 499.824 549.499 500.352C549.931 500.88 550.251 501.488 550.459 502.176C550.667 502.848 550.771 503.552 550.771 504.288C550.771 505.376 550.603 506.304 550.267 507.072C549.931 507.824 549.499 508.44 548.971 508.92C548.459 509.384 547.891 509.728 547.267 509.952C546.659 510.16 546.075 510.264 545.515 510.264C544.747 510.264 544.019 510.096 543.331 509.76C542.659 509.424 542.075 508.848 541.579 508.032L541.507 508.08ZM548.947 504.336C548.947 503.792 548.875 503.256 548.731 502.728C548.587 502.2 548.363 501.736 548.059 501.336C547.771 500.92 547.403 500.592 546.955 500.352C546.507 500.096 545.979 499.968 545.371 499.968C544.747 499.968 544.195 500.088 543.715 500.328C543.235 500.568 542.827 500.856 542.491 501.192C542.171 501.528 541.923 501.88 541.747 502.248C541.587 502.6 541.507 502.904 541.507 503.16V505.776C541.555 506.032 541.667 506.344 541.843 506.712C542.019 507.064 542.259 507.408 542.563 507.744C542.883 508.08 543.267 508.368 543.715 508.608C544.163 508.832 544.699 508.944 545.323 508.944C545.947 508.944 546.483 508.816 546.931 508.56C547.395 508.288 547.771 507.936 548.059 507.504C548.363 507.072 548.587 506.584 548.731 506.04C548.875 505.48 548.947 504.912 548.947 504.336ZM563.411 503.544L563.027 503.712C562.163 503.712 561.275 503.72 560.363 503.736C559.451 503.752 558.555 503.76 557.675 503.76H554.843C554.827 503.872 554.819 503.984 554.819 504.096C554.819 504.192 554.819 504.288 554.819 504.384C554.819 504.992 554.907 505.576 555.083 506.136C555.259 506.68 555.531 507.16 555.899 507.576C556.283 507.992 556.771 508.328 557.363 508.584C557.955 508.824 558.675 508.944 559.523 508.944C560.019 508.944 560.547 508.896 561.107 508.8C561.683 508.688 562.211 508.496 562.691 508.224L562.931 508.368V508.8L562.691 509.064C562.307 509.368 561.763 509.648 561.059 509.904C560.355 510.144 559.571 510.264 558.707 510.264C557.859 510.264 557.083 510.128 556.379 509.856C555.691 509.568 555.091 509.168 554.579 508.656C554.083 508.144 553.691 507.536 553.403 506.832C553.131 506.128 552.995 505.344 552.995 504.48C552.995 503.6 553.139 502.8 553.427 502.08C553.715 501.36 554.107 500.744 554.603 500.232C555.115 499.72 555.707 499.32 556.379 499.032C557.067 498.744 557.803 498.6 558.587 498.6C559.003 498.6 559.467 498.656 559.979 498.768C560.507 498.88 561.011 499.096 561.491 499.416C561.971 499.72 562.403 500.16 562.787 500.736C563.171 501.296 563.435 502.04 563.579 502.968L563.411 503.544ZM558.611 499.68C558.099 499.68 557.635 499.768 557.219 499.944C556.819 500.104 556.459 500.328 556.139 500.616C555.835 500.888 555.579 501.216 555.371 501.6C555.179 501.968 555.043 502.36 554.963 502.776H555.899C556.763 502.776 557.603 502.768 558.419 502.752C559.235 502.72 560.091 502.68 560.987 502.632C561.195 502.616 561.331 502.56 561.395 502.464C561.475 502.368 561.515 502.256 561.515 502.128C561.515 502.032 561.507 501.944 561.491 501.864C561.475 501.784 561.451 501.704 561.419 501.624C561.243 501.016 560.915 500.544 560.435 500.208C559.955 499.856 559.347 499.68 558.611 499.68ZM568.748 501.504C568.908 501.2 569.084 500.88 569.276 500.544C569.484 500.208 569.716 499.896 569.972 499.608C570.228 499.32 570.516 499.08 570.836 498.888C571.172 498.696 571.548 498.6 571.964 498.6C572.252 498.6 572.572 498.648 572.924 498.744C573.292 498.824 573.54 498.936 573.668 499.08L573.86 499.296L573.572 501.144H572.78C572.732 500.92 572.604 500.72 572.396 500.544C572.204 500.352 571.9 500.256 571.484 500.256C571.084 500.256 570.716 500.376 570.38 500.616C570.044 500.84 569.748 501.128 569.492 501.48C569.252 501.832 569.06 502.208 568.916 502.608C568.788 502.992 568.724 503.344 568.724 503.664V505.8C568.724 506.152 568.724 506.44 568.724 506.664C568.74 506.872 568.748 507.056 568.748 507.216C568.764 507.36 568.772 507.488 568.772 507.6C568.788 507.696 568.796 507.8 568.796 507.912L568.82 508.128C568.852 508.368 568.884 508.6 568.916 508.824C568.964 509.032 569.052 509.192 569.18 509.304C569.26 509.368 569.372 509.416 569.516 509.448C569.676 509.48 569.836 509.504 569.996 509.52C570.172 509.536 570.34 509.552 570.5 509.568C570.66 509.568 570.788 509.568 570.884 509.568L571.004 509.688L571.052 510L571.004 510.096C570.892 510.096 570.708 510.088 570.452 510.072C570.212 510.056 569.956 510.04 569.684 510.024C569.412 510.024 569.148 510.016 568.892 510C568.652 510 568.476 510 568.364 510H567.788C567.676 510 567.5 510 567.26 510C567.036 510.016 566.796 510.024 566.54 510.024C566.284 510.04 566.036 510.056 565.796 510.072C565.572 510.088 565.404 510.096 565.292 510.096L565.268 510L565.292 509.664L565.388 509.568C565.644 509.568 565.892 509.56 566.132 509.544C566.388 509.512 566.58 509.432 566.708 509.304C566.836 509.192 566.916 509.048 566.948 508.872C566.996 508.696 567.036 508.448 567.068 508.128L567.092 507.912C567.108 507.752 567.116 507.552 567.116 507.312C567.132 507.072 567.14 506.664 567.14 506.088V503.136C567.14 502.8 567.14 502.52 567.14 502.296C567.14 502.056 567.132 501.848 567.116 501.672C567.116 501.496 567.108 501.336 567.092 501.192C567.092 501.048 567.084 500.896 567.068 500.736C567.036 500.56 566.988 500.408 566.924 500.28C566.86 500.136 566.804 500.04 566.756 499.992C566.596 499.8 566.396 499.688 566.156 499.656C565.916 499.608 565.668 499.584 565.412 499.584L565.316 499.488V499.152L565.412 499.08H565.844C566.116 499.08 566.46 499.08 566.876 499.08C567.292 499.064 567.652 499.032 567.956 498.984L568.796 498.864L568.94 499.08C568.844 499.416 568.772 499.8 568.724 500.232C568.692 500.664 568.676 501.08 568.676 501.48L568.748 501.504ZM574.827 492.552L574.923 492.456H575.355C575.627 492.456 575.971 492.456 576.387 492.456C576.803 492.44 577.163 492.408 577.467 492.36L578.331 492.24L578.475 492.456C578.443 492.52 578.419 492.64 578.403 492.816C578.387 492.976 578.371 493.152 578.355 493.344C578.339 493.536 578.323 493.72 578.307 493.896C578.307 494.072 578.307 494.208 578.307 494.304C578.291 494.56 578.275 494.8 578.259 495.024C578.259 495.248 578.251 495.512 578.235 495.816C578.235 496.12 578.235 496.488 578.235 496.92C578.235 497.352 578.235 497.904 578.235 498.576V503.808C578.235 504.48 578.235 505.032 578.235 505.464C578.251 505.896 578.259 506.264 578.259 506.568C578.275 506.872 578.283 507.136 578.283 507.36C578.299 507.584 578.315 507.84 578.331 508.128C578.363 508.464 578.395 508.72 578.427 508.896C578.475 509.056 578.563 509.192 578.691 509.304C578.819 509.416 578.995 509.488 579.219 509.52C579.459 509.552 579.699 509.568 579.939 509.568L580.059 509.688L580.107 510L580.059 510.096C579.947 510.096 579.779 510.088 579.555 510.072C579.331 510.056 579.091 510.04 578.835 510.024C578.579 510.024 578.339 510.016 578.115 510C577.891 510 577.723 510 577.611 510H577.275C577.163 510 576.987 510 576.747 510C576.523 510.016 576.283 510.024 576.027 510.024C575.787 510.04 575.547 510.056 575.307 510.072C575.083 510.088 574.915 510.096 574.803 510.096L574.779 510L574.803 509.664L574.899 509.568C575.155 509.568 575.403 509.56 575.643 509.544C575.899 509.512 576.091 509.432 576.219 509.304C576.347 509.192 576.427 509.048 576.459 508.872C576.507 508.696 576.547 508.448 576.579 508.128C576.595 507.92 576.603 507.712 576.603 507.504C576.619 507.296 576.627 507.056 576.627 506.784C576.643 506.496 576.651 506.168 576.651 505.8C576.651 505.416 576.651 504.944 576.651 504.384V498.624C576.651 497.968 576.651 497.416 576.651 496.968C576.651 496.504 576.643 496.104 576.627 495.768C576.627 495.432 576.619 495.136 576.603 494.88C576.603 494.624 576.595 494.368 576.579 494.112C576.563 493.936 576.515 493.784 576.435 493.656C576.371 493.528 576.315 493.432 576.267 493.368C576.107 493.192 575.907 493.08 575.667 493.032C575.427 492.984 575.179 492.96 574.923 492.96L574.827 492.864V492.552ZM586.72 510.096C586.608 510.096 586.44 510.088 586.216 510.072C585.992 510.056 585.752 510.04 585.496 510.024C585.24 510.024 585 510.016 584.776 510C584.552 510 584.384 510 584.272 510H583.936C583.824 510 583.648 510 583.408 510C583.184 510.016 582.944 510.024 582.688 510.024C582.448 510.04 582.208 510.056 581.968 510.072C581.744 510.088 581.576 510.096 581.464 510.096L581.44 510L581.464 509.664L581.56 509.568C581.816 509.568 582.064 509.56 582.304 509.544C582.56 509.512 582.752 509.432 582.88 509.304C583.008 509.192 583.088 509.048 583.12 508.872C583.168 508.696 583.208 508.448 583.24 508.128C583.256 507.872 583.272 507.616 583.288 507.36C583.304 507.088 583.312 506.664 583.312 506.088V503.136C583.312 502.8 583.312 502.52 583.312 502.296C583.312 502.056 583.304 501.848 583.288 501.672C583.288 501.496 583.28 501.336 583.264 501.192C583.264 501.048 583.256 500.896 583.24 500.736C583.208 500.56 583.16 500.408 583.096 500.28C583.032 500.136 582.976 500.04 582.928 499.992C582.768 499.8 582.568 499.688 582.328 499.656C582.088 499.608 581.84 499.584 581.584 499.584L581.488 499.488V499.152L581.584 499.08H582.016C582.288 499.08 582.632 499.08 583.048 499.08C583.464 499.064 583.824 499.032 584.128 498.984L584.968 498.864L585.112 499.08C585.08 499.144 585.048 499.256 585.016 499.416C585 499.576 584.984 499.752 584.968 499.944C584.968 500.12 584.96 500.296 584.944 500.472C584.944 500.648 584.944 500.784 584.944 500.88C584.944 501.008 584.936 501.136 584.92 501.264C584.92 501.376 584.92 501.512 584.92 501.672C584.92 501.832 584.912 502.024 584.896 502.248C584.896 502.472 584.896 502.76 584.896 503.112V505.8C584.896 506.152 584.896 506.44 584.896 506.664C584.912 506.888 584.92 507.08 584.92 507.24C584.936 507.4 584.944 507.552 584.944 507.696C584.96 507.824 584.976 507.968 584.992 508.128C585.024 508.464 585.056 508.72 585.088 508.896C585.136 509.056 585.224 509.192 585.352 509.304C585.48 509.416 585.656 509.488 585.88 509.52C586.12 509.552 586.36 509.568 586.6 509.568L586.72 509.688L586.768 510L586.72 510.096ZM582.688 494.856C582.688 494.536 582.792 494.264 583 494.04C583.224 493.8 583.496 493.68 583.816 493.68C584.136 493.68 584.408 493.8 584.632 494.04C584.872 494.264 584.992 494.536 584.992 494.856C584.992 495.176 584.872 495.448 584.632 495.672C584.408 495.88 584.136 495.984 583.816 495.984C583.496 495.984 583.224 495.88 583 495.672C582.792 495.448 582.688 495.176 582.688 494.856ZM591.577 501.024C591.993 500.336 592.529 499.76 593.185 499.296C593.841 498.832 594.657 498.6 595.633 498.6C596.081 498.6 596.529 498.664 596.977 498.792C597.425 498.92 597.833 499.12 598.201 499.392C598.585 499.664 598.897 500.016 599.137 500.448C599.393 500.864 599.561 501.36 599.641 501.936C599.689 502.352 599.713 502.792 599.713 503.256C599.729 503.72 599.737 504.184 599.737 504.648C599.737 505.224 599.737 505.808 599.737 506.4C599.753 506.976 599.761 507.552 599.761 508.128C599.793 508.496 599.833 508.768 599.881 508.944C599.929 509.104 600.001 509.224 600.097 509.304C600.241 509.432 600.433 509.512 600.673 509.544C600.929 509.56 601.185 509.568 601.441 509.568L601.513 509.664L601.561 510L601.513 510.096C601.241 510.064 600.937 510.04 600.601 510.024C600.265 510.008 599.937 510 599.617 510C599.009 510 598.457 510.024 597.961 510.072L597.793 509.832C597.857 509.624 597.905 509.352 597.937 509.016C597.969 508.68 597.993 508.384 598.009 508.128C598.041 507.456 598.065 506.8 598.081 506.16C598.097 505.504 598.105 504.96 598.105 504.528C598.105 504.16 598.089 503.76 598.057 503.328C598.041 502.896 597.993 502.52 597.913 502.2C597.753 501.448 597.425 500.888 596.929 500.52C596.433 500.152 595.857 499.968 595.201 499.968C594.673 499.968 594.177 500.08 593.713 500.304C593.265 500.528 592.881 500.808 592.561 501.144C592.241 501.464 591.985 501.808 591.793 502.176C591.617 502.528 591.529 502.832 591.529 503.088V505.8C591.529 506.152 591.529 506.44 591.529 506.664C591.529 506.888 591.529 507.08 591.529 507.24C591.545 507.4 591.561 507.552 591.577 507.696C591.593 507.824 591.609 507.968 591.625 508.128C591.657 508.464 591.689 508.72 591.721 508.896C591.769 509.056 591.857 509.192 591.985 509.304C592.113 509.416 592.289 509.488 592.513 509.52C592.753 509.552 592.993 509.568 593.233 509.568L593.353 509.688L593.401 510L593.353 510.096C593.241 510.096 593.073 510.088 592.849 510.072C592.625 510.056 592.385 510.04 592.129 510.024C591.873 510.024 591.633 510.016 591.409 510C591.185 510 591.017 510 590.905 510H590.569C590.457 510 590.281 510 590.041 510C589.817 510.016 589.577 510.024 589.321 510.024C589.081 510.04 588.841 510.056 588.601 510.072C588.377 510.088 588.209 510.096 588.097 510.096L588.073 510L588.097 509.664L588.193 509.568C588.449 509.568 588.697 509.56 588.937 509.544C589.193 509.512 589.385 509.432 589.513 509.304C589.641 509.192 589.721 509.048 589.753 508.872C589.801 508.696 589.841 508.448 589.873 508.128C589.889 507.872 589.905 507.616 589.921 507.36C589.937 507.088 589.945 506.664 589.945 506.088V503.136C589.945 502.8 589.945 502.52 589.945 502.296C589.945 502.056 589.937 501.848 589.921 501.672C589.921 501.496 589.913 501.336 589.897 501.192C589.897 501.048 589.889 500.896 589.873 500.736C589.841 500.56 589.793 500.408 589.729 500.28C589.665 500.136 589.609 500.04 589.561 499.992C589.401 499.8 589.201 499.688 588.961 499.656C588.721 499.608 588.473 499.584 588.217 499.584L588.121 499.488V499.152L588.217 499.08H588.649C588.921 499.08 589.265 499.08 589.681 499.08C590.097 499.064 590.457 499.032 590.761 498.984L591.601 498.864L591.745 499.08C591.665 499.288 591.609 499.576 591.577 499.944C591.545 500.296 591.521 500.64 591.505 500.976L591.577 501.024Z" fill="black"/>
<circle cx="830.5" cy="335.5" r="114.5" fill="#D7FF48"/>
<path d="M383.9 456V213H432.8C449 213 462.4 215.2 473 219.6C483.6 223.8 491.4 230.7 496.4 240.3C501.6 249.7 504.2 262.1 504.2 277.5C504.2 286.9 503.2 295.5 501.2 303.3C499.2 310.9 496 317.4 491.6 322.8C487.2 328 481.4 331.8 474.2 334.2L508.7 456H476L444.2 342H417.8V456H383.9ZM417.8 317.7H430.7C440.3 317.7 448.1 316.5 454.1 314.1C460.1 311.7 464.5 307.6 467.3 301.8C470.1 296 471.5 287.9 471.5 277.5C471.5 263.3 468.9 253.1 463.7 246.9C458.5 240.5 448.2 237.3 432.8 237.3H417.8V317.7ZM539.466 456V213H633.666V238.2H573.366V318.6H622.266V342.6H573.366V431.7H634.266V456H539.466ZM722.534 458.7C705.334 458.7 691.934 455.1 682.334 447.9C672.934 440.7 666.334 431 662.534 418.8C658.934 406.6 657.134 393 657.134 378V292.2C657.134 275.8 658.934 261.5 662.534 249.3C666.334 237.1 672.934 227.7 682.334 221.1C691.934 214.3 705.334 210.9 722.534 210.9C737.734 210.9 749.734 213.7 758.534 219.3C767.534 224.9 773.934 232.9 777.734 243.3C781.734 253.7 783.734 266.2 783.734 280.8V300H751.634V282.9C751.634 273.9 751.134 266 750.134 259.2C749.334 252.2 746.934 246.8 742.934 243C738.934 239.2 732.234 237.3 722.834 237.3C713.234 237.3 706.234 239.4 701.834 243.6C697.434 247.6 694.534 253.4 693.134 261C691.934 268.4 691.334 277.1 691.334 287.1V383.4C691.334 395.6 692.334 405.3 694.334 412.5C696.334 419.5 699.634 424.5 704.234 427.5C708.834 430.5 715.034 432 722.834 432C732.034 432 738.634 430 742.634 426C746.634 421.8 749.134 416.1 750.134 408.9C751.134 401.7 751.634 393.3 751.634 383.7V365.7H783.734V383.7C783.734 398.5 781.934 411.6 778.334 423C774.734 434.2 768.534 443 759.734 449.4C750.934 455.6 738.534 458.7 722.534 458.7Z" fill="black"/>
</svg>
