<svg width="1200" height="715" viewBox="0 0 1200 715" fill="none" xmlns="http://www.w3.org/2000/svg">
<rect width="1200" height="715" fill="#7C9885"/>
<rect x="600.332" y="276.438" width="40.4379" height="130.277" transform="rotate(-90 600.332 276.438)" fill="#E31937"/>
<rect x="599.77" y="437" width="38.0592" height="129.154" transform="rotate(-90 599.77 437)" fill="#E31937"/>
<rect x="599.77" y="352.556" width="38.0592" height="71.8769" transform="rotate(-90 599.77 352.556)" fill="#7C9885"/>
<path d="M774.969 300.225H813.153V437H774.969V300.225Z" fill="#E31937"/>
<rect x="774.969" y="278.816" width="40.4379" height="128.031" transform="rotate(-90 774.969 278.816)" fill="#E31937"/>
<path d="M553.723 314.497C553.723 295.578 545.198 277.415 530.039 264.037C514.881 250.66 494.299 243.136 472.862 243.136C451.424 243.136 430.842 250.66 415.684 264.037C400.525 277.415 392 295.578 392 314.497" stroke="#E31937" stroke-width="33"/>
<path d="M392 352.556C392 371.475 400.525 389.638 415.683 403.016C430.842 416.394 451.424 423.917 472.861 423.917C494.299 423.917 514.88 416.394 530.039 403.016C545.198 389.638 553.723 371.475 553.723 352.556" stroke="#E31937" stroke-width="33"/>
<rect x="604.262" y="357.313" width="40.4379" height="59.5231" transform="rotate(-90 604.262 357.313)" fill="#E31937"/>
</svg>
