<svg width="1200" height="715" viewBox="0 0 1200 715" fill="none" xmlns="http://www.w3.org/2000/svg">
<rect width="1200" height="715" fill="#4E06A7"/>
<path d="M518.208 322.184C518.208 325.256 517.44 328.072 515.904 330.632C514.453 333.192 512.448 335.24 509.888 336.776C507.328 338.312 504.469 339.08 501.312 339.08H477.76C476.736 339.08 476.224 339.635 476.224 340.744V367.112C476.224 368.733 475.627 370.141 474.432 371.336C473.323 372.445 471.957 373 470.336 373H466.88C465.259 373 463.851 372.445 462.656 371.336C461.547 370.141 460.992 368.733 460.992 367.112V292.36C460.992 290.653 461.547 289.245 462.656 288.136C463.851 287.027 465.259 286.472 466.88 286.472H501.312C504.469 286.472 507.328 287.24 509.888 288.776C512.448 290.312 514.453 292.36 515.904 294.92C517.44 297.48 518.208 300.339 518.208 303.496V322.184ZM503.104 322.184V303.496C503.104 302.301 502.507 301.704 501.312 301.704H477.76C476.736 301.704 476.224 302.259 476.224 303.368V322.184C476.224 323.293 476.736 323.848 477.76 323.848H501.312C502.507 323.848 503.104 323.293 503.104 322.184ZM574.831 358.664C574.831 362.675 573.423 366.088 570.607 368.904C567.876 371.635 564.548 373 560.623 373H542.831C538.906 373 535.535 371.635 532.719 368.904C529.903 366.088 528.495 362.675 528.495 358.664V321.032C528.495 318.387 529.135 315.997 530.415 313.864C531.78 311.645 533.53 309.896 535.663 308.616C537.796 307.336 540.186 306.696 542.831 306.696H560.623C563.268 306.696 565.658 307.336 567.791 308.616C569.924 309.896 571.631 311.645 572.911 313.864C574.191 315.997 574.831 318.387 574.831 321.032V358.664ZM559.727 356.232V323.72C559.727 323.208 559.514 322.781 559.087 322.44C558.746 322.099 558.362 321.928 557.935 321.928H545.519C545.092 321.928 544.666 322.099 544.239 322.44C543.898 322.781 543.727 323.208 543.727 323.72V356.232C543.727 356.659 543.898 357.043 544.239 357.384C544.666 357.725 545.092 357.896 545.519 357.896H557.935C558.362 357.896 558.746 357.725 559.087 357.384C559.514 357.043 559.727 356.659 559.727 356.232ZM623.261 316.168C623.261 317.789 622.706 319.155 621.597 320.264C620.488 321.373 619.122 321.928 617.501 321.928H602.269C601.16 321.928 600.605 322.525 600.605 323.72V367.112C600.605 368.733 600.008 370.141 598.813 371.336C597.704 372.445 596.338 373 594.717 373H591.133C589.512 373 588.146 372.445 587.037 371.336C585.928 370.141 585.373 368.733 585.373 367.112V321.032C585.373 318.387 586.013 315.997 587.293 313.864C588.573 311.645 590.28 309.896 592.413 308.616C594.546 307.336 596.936 306.696 599.581 306.696H617.501C619.122 306.696 620.488 307.293 621.597 308.488C622.706 309.597 623.261 311.005 623.261 312.712V316.168ZM671.636 367.112C671.636 368.733 671.081 370.141 669.972 371.336C668.863 372.445 667.497 373 665.876 373H647.956C644.031 373 640.66 371.635 637.844 368.904C635.113 366.088 633.748 362.675 633.748 358.664V292.36C633.748 290.653 634.303 289.245 635.412 288.136C636.521 287.027 637.887 286.472 639.508 286.472H643.092C644.713 286.472 646.079 287.027 647.188 288.136C648.383 289.245 648.98 290.653 648.98 292.36V305.16C648.98 306.184 649.535 306.696 650.644 306.696H665.876C667.497 306.696 668.863 307.293 669.972 308.488C671.081 309.597 671.636 311.005 671.636 312.712V316.168C671.636 317.619 671.081 318.984 669.972 320.264C668.692 321.373 667.327 321.928 665.876 321.928H650.644C649.535 321.928 648.98 322.525 648.98 323.72V356.232C648.98 357.341 649.535 357.896 650.644 357.896H665.876C667.497 357.896 668.863 358.451 669.972 359.56C671.081 360.669 671.636 362.077 671.636 363.784V367.112ZM718.347 316.168C718.347 317.789 717.792 319.155 716.683 320.264C715.574 321.373 714.166 321.928 712.459 321.928H699.019C697.91 321.928 697.355 322.525 697.355 323.72V367.112C697.355 368.733 696.758 370.141 695.563 371.336C694.454 372.445 693.088 373 691.467 373H687.883C686.262 373 684.854 372.445 683.659 371.336C682.55 370.141 681.995 368.733 681.995 367.112V300.68C681.995 298.035 682.635 295.645 683.915 293.512C685.28 291.379 687.03 289.672 689.163 288.392C691.296 287.112 693.686 286.472 696.331 286.472H712.459C714.166 286.472 715.574 287.027 716.683 288.136C717.792 289.245 718.347 290.653 718.347 292.36V295.816C718.347 297.437 717.792 298.845 716.683 300.04C715.574 301.149 714.166 301.704 712.459 301.704H699.019C697.91 301.704 697.355 302.259 697.355 303.368V305.16C697.355 306.184 697.91 306.696 699.019 306.696H712.459C714.166 306.696 715.574 307.293 716.683 308.488C717.792 309.597 718.347 311.005 718.347 312.712V316.168ZM775.081 358.664C775.081 362.675 773.673 366.088 770.857 368.904C768.126 371.635 764.798 373 760.873 373H743.081C739.156 373 735.785 371.635 732.969 368.904C730.153 366.088 728.745 362.675 728.745 358.664V321.032C728.745 318.387 729.385 315.997 730.665 313.864C732.03 311.645 733.78 309.896 735.913 308.616C738.046 307.336 740.436 306.696 743.081 306.696H760.873C763.518 306.696 765.908 307.336 768.041 308.616C770.174 309.896 771.881 311.645 773.161 313.864C774.441 315.997 775.081 318.387 775.081 321.032V358.664ZM759.977 356.232V323.72C759.977 323.208 759.764 322.781 759.337 322.44C758.996 322.099 758.612 321.928 758.185 321.928H745.769C745.342 321.928 744.916 322.099 744.489 322.44C744.148 322.781 743.977 323.208 743.977 323.72V356.232C743.977 356.659 744.148 357.043 744.489 357.384C744.916 357.725 745.342 357.896 745.769 357.896H758.185C758.612 357.896 758.996 357.725 759.337 357.384C759.764 357.043 759.977 356.659 759.977 356.232ZM808.791 367.112C808.791 368.733 808.194 370.141 806.999 371.336C805.89 372.445 804.524 373 802.903 373H799.703C795.778 373 792.407 371.635 789.591 368.904C786.775 366.088 785.367 362.675 785.367 358.664V292.36C785.367 290.653 785.922 289.245 787.031 288.136C788.226 287.027 789.634 286.472 791.255 286.472H794.839C796.46 286.472 797.826 287.027 798.935 288.136C800.13 289.245 800.727 290.653 800.727 292.36V356.232C800.727 357.341 801.239 357.896 802.263 357.896H802.903C804.524 357.896 805.89 358.451 806.999 359.56C808.194 360.669 808.791 362.077 808.791 363.784V367.112ZM838.198 294.664C838.198 297.309 837.217 299.613 835.254 301.576C833.377 303.453 831.158 304.392 828.598 304.392C825.953 304.392 823.649 303.453 821.686 301.576C819.809 299.613 818.87 297.309 818.87 294.664C818.87 292.104 819.809 289.885 821.686 288.008C823.649 286.045 825.953 285.064 828.598 285.064C831.158 285.064 833.377 286.045 835.254 288.008C837.217 289.885 838.198 292.104 838.198 294.664ZM836.15 367.112C836.15 368.733 835.553 370.141 834.358 371.336C833.249 372.445 831.883 373 830.262 373H826.806C825.185 373 823.777 372.445 822.582 371.336C821.473 370.141 820.918 368.733 820.918 367.112V313.992C820.918 312.371 821.473 311.005 822.582 309.896C823.777 308.701 825.185 308.104 826.806 308.104H830.262C831.883 308.104 833.249 308.701 834.358 309.896C835.553 311.005 836.15 312.371 836.15 313.992V367.112ZM894.831 358.664C894.831 362.675 893.423 366.088 890.607 368.904C887.876 371.635 884.548 373 880.623 373H862.831C858.906 373 855.535 371.635 852.719 368.904C849.903 366.088 848.495 362.675 848.495 358.664V321.032C848.495 318.387 849.135 315.997 850.415 313.864C851.78 311.645 853.53 309.896 855.663 308.616C857.796 307.336 860.186 306.696 862.831 306.696H880.623C883.268 306.696 885.658 307.336 887.791 308.616C889.924 309.896 891.631 311.645 892.911 313.864C894.191 315.997 894.831 318.387 894.831 321.032V358.664ZM879.727 356.232V323.72C879.727 323.208 879.514 322.781 879.087 322.44C878.746 322.099 878.362 321.928 877.935 321.928H865.519C865.092 321.928 864.666 322.099 864.239 322.44C863.898 322.781 863.727 323.208 863.727 323.72V356.232C863.727 356.659 863.898 357.043 864.239 357.384C864.666 357.725 865.092 357.896 865.519 357.896H877.935C878.362 357.896 878.746 357.725 879.087 357.384C879.514 357.043 879.727 356.659 879.727 356.232Z" fill="white"/>
<path d="M343.44 251.12C321.506 251.12 303.66 276.495 303.66 307.688C303.66 323.278 308.204 337.273 315.416 347.486C313.693 349.731 312.84 352.451 312.84 355.16C312.84 358.135 313.815 361.151 315.906 363.503C317.997 365.855 321.255 367.4 325.08 367.4C328.905 367.4 332.163 365.855 334.254 363.503C336.345 361.151 337.32 358.135 337.32 355.16C337.32 352.185 336.345 349.169 334.254 346.817C332.163 344.465 328.905 342.92 325.08 342.92C323.299 342.92 321.66 343.281 320.185 343.876C313.812 334.712 309.78 321.941 309.78 307.688C309.78 279.87 324.881 257.24 343.44 257.24C360.022 257.24 373.805 275.323 376.562 299.01C378.726 299.833 380.872 300.761 382.999 301.783C380.915 273.356 363.973 251.12 343.44 251.12ZM337.32 290.9C333.495 290.9 330.237 292.445 328.146 294.797C326.055 297.149 325.08 300.165 325.08 303.14C325.08 306.115 326.055 309.131 328.146 311.483C330.237 313.835 333.495 315.38 337.32 315.38C341.145 315.38 344.403 313.835 346.494 311.483C347.801 310.013 348.624 308.274 349.094 306.457C360.041 305.986 372.344 309.221 383.656 316.002C407.812 330.481 419.979 355.731 410.778 372.283C407.491 378.192 401.754 382.387 394.193 384.409C383.599 387.249 370.587 385.503 358.166 379.885C356.373 381.326 354.477 382.69 352.524 384.009C362.699 389.147 373.466 391.868 383.411 391.868C387.729 391.868 391.891 391.361 395.777 390.32C404.978 387.857 412.017 382.646 416.127 375.253C426.91 355.847 413.756 326.914 386.8 310.754C374.633 303.456 361.266 299.886 349.213 300.277C348.777 298.294 347.91 296.39 346.494 294.797C344.403 292.445 341.145 290.9 337.32 290.9ZM337.32 297.02C339.615 297.02 340.947 297.77 341.916 298.861C342.885 299.951 343.44 301.525 343.44 303.14C343.44 304.755 342.885 306.329 341.916 307.419C340.947 308.51 339.615 309.26 337.32 309.26C335.025 309.26 333.693 308.51 332.724 307.419C331.755 306.329 331.2 304.755 331.2 303.14C331.2 301.525 331.755 299.951 332.724 298.861C333.693 297.77 335.025 297.02 337.32 297.02ZM298.036 316.396C276.726 333.042 267.252 357.934 276.879 375.253C280.989 382.646 288.028 387.851 297.229 390.314C301.118 391.355 305.277 391.868 309.595 391.868C321.223 391.868 333.988 388.17 345.604 381.206C359.544 372.848 369.584 361.075 374.691 348.974C378.225 348.805 381.247 347.356 383.214 345.143C385.305 342.791 386.28 339.775 386.28 336.8C386.28 333.825 385.305 330.809 383.214 328.457C381.123 326.105 377.865 324.56 374.04 324.56C370.215 324.56 366.957 326.105 364.866 328.457C362.775 330.809 361.8 333.825 361.8 336.8C361.8 339.775 362.775 342.791 364.866 345.143C365.882 346.286 367.186 347.227 368.685 347.904C363.886 358.335 354.809 368.552 342.454 375.958C327.919 384.676 311.604 387.836 298.807 384.409C291.243 382.384 285.511 378.192 282.228 372.283C274.45 358.289 281.98 338.109 299.076 323.442C298.632 321.144 298.287 318.789 298.036 316.396ZM374.04 330.68C376.335 330.68 377.667 331.43 378.636 332.521C379.605 333.611 380.16 335.185 380.16 336.8C380.16 338.415 379.605 339.989 378.636 341.079C377.667 342.17 376.335 342.92 374.04 342.92C371.745 342.92 370.413 342.17 369.444 341.079C368.475 339.989 367.92 338.415 367.92 336.8C367.92 335.185 368.475 333.611 369.444 332.521C370.413 331.43 371.745 330.68 374.04 330.68ZM325.08 349.04C327.375 349.04 328.707 349.79 329.676 350.881C330.645 351.971 331.2 353.545 331.2 355.16C331.2 356.775 330.645 358.349 329.676 359.439C328.707 360.53 327.375 361.28 325.08 361.28C322.785 361.28 321.453 360.53 320.484 359.439C319.515 358.349 318.96 356.775 318.96 355.16C318.96 353.545 319.515 351.971 320.484 350.881C321.453 349.79 322.785 349.04 325.08 349.04Z" fill="white"/>
</svg>
