<svg width="1200" height="715" viewBox="0 0 1200 715" fill="none" xmlns="http://www.w3.org/2000/svg">
<rect width="1200" height="715" fill="#310000"/>
<path d="M373.45 387.51L333.903 318.529H301.756L294.008 316.785L297.477 302.477V298.754H334.249C341.419 298.754 347.162 297.281 351.479 294.334C355.796 291.309 358.88 287.354 360.73 282.469C362.657 277.583 363.621 272.271 363.621 266.532C363.621 260.173 362.58 254.861 360.499 250.596C358.417 246.253 355.025 242.996 350.323 240.824C345.62 238.653 339.337 237.567 331.474 237.567L303.837 237.451L303.721 231.867L293.892 218.373C297.439 218.373 301.409 218.373 305.803 218.373C310.197 218.373 314.514 218.373 318.754 218.373C322.994 218.373 326.656 218.373 329.74 218.373C348.473 218.373 362.503 222.29 371.831 230.122C381.159 237.877 385.823 249.277 385.823 264.322C385.823 269.983 385.207 275.605 383.973 281.189C382.74 286.695 380.581 291.852 377.497 296.66C374.414 301.468 370.174 305.579 364.777 308.991C359.381 312.325 352.52 314.652 344.194 315.97L344.772 313.178C347.471 313.101 349.706 313.334 351.479 313.876C353.329 314.419 354.948 315.427 356.336 316.901C357.801 318.374 359.304 320.507 360.846 323.299L397.734 387.51H373.45ZM283.254 387.51V218.373H304.531V387.51H283.254Z" fill="white"/>
<path d="M472.691 391C460.511 391 449.95 387.549 441.007 380.647C432.065 373.745 425.165 363.702 420.308 350.519C415.451 337.258 413.023 321.089 413.023 302.011C413.023 273.938 418.381 252.418 429.097 237.451C439.889 222.484 454.421 215 472.691 215C491.116 215 505.648 222.484 516.286 237.451C527.002 252.418 532.36 273.938 532.36 302.011C532.36 321.089 529.931 337.258 525.075 350.519C520.295 363.702 513.434 373.745 504.491 380.647C495.549 387.549 484.949 391 472.691 391ZM472.691 370.759C484.486 370.759 493.699 365.176 500.329 354.009C507.035 342.841 510.389 325.509 510.389 302.011C510.389 278.824 507.035 261.918 500.329 251.293C493.699 240.592 484.486 235.241 472.691 235.241C460.974 235.241 451.761 240.592 445.054 251.293C438.425 261.918 435.11 278.824 435.11 302.011C435.11 325.509 438.425 342.841 445.054 354.009C451.761 365.176 460.974 370.759 472.691 370.759Z" fill="white"/>
<path d="M611.712 389.837C600.996 389.837 591.36 387.665 582.803 383.323C574.323 378.902 567.616 372.078 562.682 362.849C557.748 353.543 555.281 341.601 555.281 327.021V218.141H576.905V324.346C576.905 332.799 577.869 339.933 579.796 345.75C581.723 351.488 584.344 356.141 587.659 359.709C590.974 363.198 594.713 365.719 598.876 367.27C603.116 368.821 607.472 369.596 611.943 369.596C616.183 369.596 620.307 368.821 624.316 367.27C628.402 365.719 632.064 363.198 635.302 359.709C638.539 356.141 641.083 351.488 642.934 345.75C644.861 339.933 645.824 332.799 645.824 324.346V218.373H667.448V327.021C667.448 341.601 664.943 353.543 659.932 362.849C654.921 372.078 648.214 378.902 639.811 383.323C631.408 387.665 622.042 389.837 611.712 389.837Z" fill="white"/>
<path d="M752.582 390.884C739.014 390.884 727.605 387.316 718.354 380.182C709.18 372.97 702.242 362.733 697.539 349.472C692.837 336.211 690.485 320.546 690.485 302.477C690.485 284.175 692.952 268.548 697.886 255.597C702.897 242.569 710.259 232.604 719.973 225.702C729.686 218.722 741.635 215.233 755.82 215.233C764.454 215.233 772.24 216.861 779.178 220.118C786.194 223.375 792.014 228.804 796.64 236.404C801.265 243.926 804.272 254.163 805.659 267.114H784.498C783.881 260.832 782.339 255.326 779.872 250.596C777.482 245.865 774.129 242.181 769.812 239.545C765.572 236.83 760.291 235.473 753.97 235.473C744.256 235.473 736.316 238.226 730.149 243.732C724.058 249.238 719.549 257.032 716.619 267.114C713.767 277.118 712.341 288.905 712.341 302.477C712.341 316.668 713.96 328.882 717.197 339.119C720.512 349.278 725.176 357.072 731.189 362.5C737.202 367.929 744.295 370.643 752.466 370.643C759.636 370.643 765.919 369.674 771.315 367.735C776.712 365.796 781.298 363.16 785.076 359.825V319.576H754.895V299.452H805.197L804.965 370.294C799.954 374.482 794.789 378.127 789.47 381.229C784.151 384.331 778.485 386.696 772.472 388.325C766.458 390.031 759.829 390.884 752.582 390.884Z" fill="white"/>
<path d="M839.913 387.51V218.373H936.469V237.102H852.055L861.421 228.145V295.73L852.055 289.448H928.259V308.176H855.292L861.421 301.313V379.6L852.055 368.433H941.442V387.51H839.913Z" fill="white"/>
<path d="M255 227.563H944V242.104H255V227.563Z" fill="#310000"/>
<path d="M255 261.491H944V276.032H255V261.491Z" fill="#310000"/>
<path d="M255 295.419H944V309.96H255V295.419Z" fill="#310000"/>
<path d="M255 329.348H944V343.888H255V329.348Z" fill="#310000"/>
<path d="M255 363.276H944V377.817H255V363.276Z" fill="#310000"/>
<path d="M336.096 499L358.704 429.208H370.992L393.504 499H384.096L377.568 478.024L382.704 481.672H348L351.36 473.848H380.304L377.424 477.544L368.88 449.752L364.944 435.688H364.656L360.768 449.752L345.552 499H336.096ZM397.691 499L399.179 429.208H412.043L419.675 457.576L422.363 469.624H422.507L425.243 457.576L432.635 429.208H445.547L447.035 499H438.875L438.107 471.352L438.443 436.216H437.867L433.787 452.104L425.387 480.424H419.723L410.891 452.104L406.859 436.216H406.234L406.619 471.352L405.851 499H397.691ZM480.261 499.96C475.461 499.96 471.189 499.192 467.445 497.656C463.733 496.12 460.805 493.736 458.661 490.504C456.517 487.272 455.413 483.096 455.349 477.976H464.181C464.245 481.432 465.045 484.184 466.581 486.232C468.117 488.248 470.117 489.704 472.581 490.6C475.077 491.464 477.749 491.896 480.597 491.896C483.893 491.896 486.613 491.416 488.757 490.456C490.933 489.464 492.565 488.168 493.653 486.568C494.741 484.968 495.285 483.256 495.285 481.432C495.285 478.808 494.613 476.68 493.269 475.048C491.925 473.416 490.005 472.056 487.509 470.968C485.013 469.848 482.053 468.744 478.629 467.656C474.853 466.44 471.413 464.904 468.309 463.048C465.237 461.192 462.789 458.92 460.965 456.232C459.141 453.512 458.229 450.296 458.229 446.584C458.229 442.488 459.237 439.08 461.253 436.36C463.269 433.608 465.957 431.544 469.317 430.168C472.709 428.792 476.437 428.104 480.501 428.104C486.581 428.104 491.541 429.72 495.381 432.952C499.221 436.152 501.541 441.032 502.341 447.592H493.797C493.509 445.416 492.853 443.464 491.829 441.736C490.837 440.008 489.397 438.648 487.509 437.656C485.621 436.632 483.189 436.12 480.213 436.12C476.117 436.12 472.869 437.016 470.469 438.808C468.069 440.6 466.869 443.08 466.869 446.248C466.869 448.488 467.301 450.408 468.165 452.008C469.061 453.576 470.597 455.016 472.773 456.328C474.981 457.608 478.021 458.952 481.893 460.36C484.677 461.352 487.381 462.392 490.005 463.48C492.661 464.568 495.029 465.864 497.109 467.368C499.221 468.84 500.901 470.68 502.149 472.888C503.397 475.064 504.021 477.768 504.021 481C504.053 484.968 503.077 488.376 501.093 491.224C499.141 494.04 496.373 496.2 492.789 497.704C489.237 499.208 485.061 499.96 480.261 499.96ZM532.927 499V441.64C532.927 440.52 533.152 439.592 533.6 438.856C534.048 438.12 534.656 437.624 535.424 437.368H513.488V429.208H561.488V437.368H542.048V499H532.927ZM574.794 499V429.208H614.874V436.936H579.834L583.722 433.24V461.128L579.834 458.536H611.466V466.264H581.178L583.722 463.432V495.736L579.834 491.128H616.938V499H574.794ZM668.981 499L652.565 470.536H639.221L636.005 469.816L637.445 463.912V462.376H652.709C655.685 462.376 658.069 461.768 659.861 460.552C661.653 459.304 662.933 457.672 663.701 455.656C664.501 453.64 664.901 451.448 664.901 449.08C664.901 446.456 664.469 444.264 663.605 442.504C662.741 440.712 661.333 439.368 659.381 438.472C657.429 437.576 654.821 437.128 651.557 437.128L640.085 437.08L640.037 434.776L635.957 429.208C637.429 429.208 639.077 429.208 640.901 429.208C642.725 429.208 644.517 429.208 646.277 429.208C648.037 429.208 649.557 429.208 650.837 429.208C658.613 429.208 664.437 430.824 668.309 434.056C672.181 437.256 674.117 441.96 674.117 448.168C674.117 450.504 673.861 452.824 673.349 455.128C672.837 457.4 671.941 459.528 670.661 461.512C669.381 463.496 667.621 465.192 665.381 466.6C663.141 467.976 660.293 468.936 656.837 469.48L657.077 468.328C658.197 468.296 659.125 468.392 659.861 468.616C660.629 468.84 661.301 469.256 661.877 469.864C662.485 470.472 663.109 471.352 663.749 472.504L679.061 499H668.981ZM631.541 499V429.208H640.373V499H631.541ZM697.071 499L694.911 490.648H705.615C709.903 490.648 713.583 489.624 716.655 487.576C719.727 485.496 722.079 482.456 723.711 478.456C725.343 474.456 726.159 469.56 726.159 463.768C726.159 457.656 725.375 452.68 723.807 448.84C722.271 444.968 719.967 442.12 716.895 440.296C713.855 438.472 710.079 437.56 705.567 437.56H694.527L697.071 429.208H704.511C714.143 429.208 721.679 431.96 727.119 437.464C732.559 442.968 735.279 451.704 735.279 463.672C735.279 471.416 733.967 477.912 731.343 483.16C728.719 488.408 725.103 492.36 720.495 495.016C715.887 497.672 710.575 499 704.559 499H697.071ZM688.143 499V429.208H697.071V499H688.143ZM739.034 499L761.642 429.208H773.93L796.442 499H787.034L780.506 478.024L785.642 481.672H750.938L754.298 473.848H783.242L780.362 477.544L771.818 449.752L767.882 435.688H767.594L763.706 449.752L748.49 499H739.034ZM800.628 499L802.116 429.208H814.98L822.612 457.576L825.3 469.624H825.444L828.18 457.576L835.572 429.208H848.484L849.972 499H841.812L841.044 471.352L841.38 436.216H840.804L836.724 452.104L828.324 480.424H822.66L813.828 452.104L809.796 436.216H809.172L809.556 471.352L808.788 499H800.628Z" fill="white"/>
</svg>
